<svg width="35" height="50" viewBox="0 0 35 50" fill="none" xmlns="http://www.w3.org/2000/svg">
<path fill-rule="evenodd" clip-rule="evenodd" d="M1.55405 45.0332C1.55405 43.7291 1.45694 43.7291 2.37259 43.7291H21.407C22.2117 43.7291 22.1007 43.6736 22.1007 45.0332C22.1007 46.8784 20.6717 48.4461 18.8404 48.4461H4.93918C3.01077 48.4322 1.55405 46.92 1.55405 45.0332ZM1.59567 31.5205C2.7333 31.3124 10.8632 31.465 13.18 31.465C15.3859 31.465 14.609 31.1875 16.1628 32.3945C18.8681 34.5033 20.2555 35.0443 21.3931 38.7485C21.6012 39.4422 22.1145 41.44 21.8926 42.1475C20.6994 42.3834 5.75771 42.203 2.63618 42.2169C1.66504 42.2308 1.56792 42.2724 1.56792 41.3013C1.51243 38.9289 1.40144 33.1575 1.59567 31.5205ZM1.63729 18.9511C2.09512 18.743 10.003 18.7569 10.766 18.8956C10.9048 20.9905 10.988 22.9883 11.4458 24.9999C12.1673 28.1353 13.291 29.2036 13.3604 29.8834C11.6817 29.8834 2.51132 30.0637 1.65117 29.7724C1.47081 29.1342 1.45694 19.6448 1.63729 18.9511ZM2.88591 14.9L8.93474 14.8862C9.60067 14.8862 9.60067 14.9278 9.60067 15.5798C9.60067 16.7868 9.76715 17.3418 9.0596 17.3418H3.27436C2.65006 17.3418 2.81654 16.5926 2.80266 15.5798L2.88591 14.9ZM4.73108 13.2075C4.56459 12.6109 4.55072 11.4594 4.74495 10.8629C5.32764 10.7241 7.11731 10.7241 7.7 10.8906C7.88036 11.4733 7.88036 12.6387 7.68613 13.1381C7.47802 13.4017 6.5485 13.3185 6.24329 13.3185C5.68835 13.3046 5.23052 13.374 4.73108 13.2075ZM16.5097 15.8296C16.5097 17.4805 16.8842 20.5465 15.705 19.7558C15.4414 19.5754 15.483 11.39 15.6772 10.8212L16.468 10.8629C16.6345 11.9727 16.5097 14.4977 16.5097 15.8296ZM19.9503 9.10092C19.6867 9.33677 18.8959 9.39227 18.4519 9.28128C17.897 9.14254 18.008 8.76796 18.0219 8.11591C18.0357 7.13089 17.9525 6.03489 18.119 5.06374C18.6184 4.9805 19.326 4.95275 19.8254 5.07762C20.422 5.21635 20.2277 8.80958 19.9503 9.10092ZM3.39922 9.28128C2.63618 9.28128 2.80266 8.82345 2.80266 8.10203C2.80266 7.57484 2.76104 7.0199 2.88591 6.5482C3.09401 5.70192 3.8293 4.99438 4.81432 4.99438H15.8715C16.3293 4.99438 16.5097 4.91113 16.5097 5.38283C16.5097 8.89282 16.8565 9.26741 15.7744 9.26741H3.39922V9.28128ZM2.95527 10.8629C3.13563 11.2652 3.08013 11.8617 3.08013 12.5693C3.08013 13.0271 3.23274 12.7635 2.95527 13.0687C2.65006 13.4294 1.98413 13.263 1.41532 13.4711C1.04073 14.7197 1.44306 16.0099 1.15172 17.1892C0.513541 17.4944 0.70777 17.1198 0.125084 17.6886C-0.0968919 18.0493 0.0418428 40.566 0.0418428 42.9522C0.0418428 45.3801 -0.152386 46.5454 1.12397 48.1825C2.08124 49.4172 3.44084 49.9999 5.57736 49.9999C9.82264 49.9861 14.0679 49.9861 18.3132 49.9999C20.3249 50.0138 21.74 49.2785 22.6556 48.0715C23.7932 46.5871 23.6822 45.0332 23.5851 42.9522C23.3909 38.8595 22.4198 35.8351 20.2277 33.5737C18.1606 31.4511 15.5108 30.7435 13.8598 27.3307C13.2078 25.9711 12.7083 23.9594 12.5557 22.3501C12.1118 17.647 12.9303 17.7302 11.2377 17.2447C11.0574 16.4539 11.1961 15.3024 11.1684 14.3867C11.1545 13.8873 11.0713 13.5682 10.6967 13.3878C10.4331 13.263 10.3915 13.3185 10.0724 13.2907C9.22608 13.2213 9.3232 13.3323 9.3232 11.5565C9.3232 10.4883 9.28158 10.7935 12.1395 10.7935L13.6517 10.849C13.6795 10.8629 13.735 10.8767 13.7488 10.8767C14.2483 11.0016 13.9986 17.2447 13.9847 18.1464C13.9847 19.1592 13.6517 21.0321 14.4841 21.3373C15.3027 21.6425 17.3837 21.4483 17.9109 21.1015C18.1606 20.7685 17.9664 13.263 18.008 11.6953C18.0357 10.8906 17.9248 10.8074 18.6739 10.7796C19.2011 10.7519 19.8393 10.8767 20.311 10.7519C22.1145 10.2802 21.74 7.82456 21.7122 5.79904C21.6845 3.05209 19.8809 3.45442 17.5363 3.45442C13.3465 3.45442 8.96249 3.32956 4.80044 3.45442C3.02464 3.50991 1.60955 4.75853 1.3182 6.32623C1.15172 7.21413 1.22109 8.42112 1.22109 9.42001C1.22109 11.0571 1.65117 10.5715 2.95527 10.8629Z" fill="black"/>
<path fill-rule="evenodd" clip-rule="evenodd" d="M4.68928 27.525V21.0877C4.68928 19.8113 3.23257 19.742 3.12158 20.949L3.14933 27.8996C3.32968 28.9123 4.68928 28.9678 4.68928 27.525Z" fill="black"/>
<path fill-rule="evenodd" clip-rule="evenodd" d="M3.12158 33.9622V39.6226C3.12158 40.9822 4.68928 40.9267 4.68928 39.6226V33.8373C4.68928 32.6581 3.12158 32.4916 3.12158 33.9622Z" fill="black"/>
<path fill-rule="evenodd" clip-rule="evenodd" d="M28.7042 2.13637C27.5666 2.66356 28.6349 4.13415 30.3274 3.50984C31.6038 3.05201 30.3968 1.3317 28.7042 2.13637Z" fill="black"/>
<path fill-rule="evenodd" clip-rule="evenodd" d="M24.8474 4.0649C23.5849 4.32849 23.793 5.99331 26.0405 5.56323C27.081 5.35513 27.081 3.60707 24.8474 4.0649Z" fill="black"/>
<path fill-rule="evenodd" clip-rule="evenodd" d="M32.478 12.4584C32.3532 13.5682 32.811 13.7486 33.8931 13.6931C35.0307 13.6515 35.1556 12.9578 34.6839 12.1948C33.796 11.9867 33.0468 12.0144 32.478 12.4584Z" fill="black"/>
<path fill-rule="evenodd" clip-rule="evenodd" d="M33.4908 9.66984H33.8792C35.336 9.66984 35.3498 8.10214 34.0041 8.10214H33.3659C32.0896 8.08827 31.9647 9.66984 33.4908 9.66984Z" fill="black"/>
<path fill-rule="evenodd" clip-rule="evenodd" d="M28.5937 11.4872C28.9682 11.6536 29.6897 11.6814 30.1614 11.5981C30.8412 11.4872 30.855 11.1542 30.8134 10.516C30.4388 10.2385 30.092 9.89171 28.9821 10.1137C28.1358 10.2802 28.0387 11.0432 28.5937 11.4872Z" fill="black"/>
<path fill-rule="evenodd" clip-rule="evenodd" d="M33.3658 1.5538C34.1566 1.5538 34.2121 1.62316 34.8364 1.34569C35.2387 -3.26834e-05 34.4895 -0.0555265 33.2409 0.0277143C32.02 0.110955 32.131 1.5538 33.3658 1.5538Z" fill="black"/>
<path fill-rule="evenodd" clip-rule="evenodd" d="M25.1391 9.66984H25.6524C26.9288 9.66984 27.2063 8.10214 25.6524 8.10214H25.1391C23.6824 8.08827 23.835 9.66984 25.1391 9.66984Z" fill="black"/>
<path fill-rule="evenodd" clip-rule="evenodd" d="M30.0222 6.07665C29.1343 6.07665 28.2742 5.92405 28.2603 6.82582C28.2464 7.94957 30.5217 7.81084 30.7714 7.15878C30.9934 6.53448 30.5911 6.07665 30.0222 6.07665Z" fill="black"/>
<path fill-rule="evenodd" clip-rule="evenodd" d="M32.506 5.27177C33.0332 5.57699 33.269 5.68797 34.1569 5.59086C34.7257 5.52149 35.2807 5.04979 34.809 4.38387C34.5176 3.93992 32.1453 3.41272 32.506 5.27177Z" fill="black"/>
</svg>
