<svg width="80" height="90" viewBox="0 0 80 90" fill="none" xmlns="http://www.w3.org/2000/svg">
<g clip-path="url(#clip0_9_813)">
<path d="M79.9316 71.1476C79.7082 68.7283 78.4241 66.5509 76.5259 65.062C73.9204 63.0149 69.6028 58.7903 68.9328 52.9839C67.9651 44.5906 70.2914 14.5347 45.707 11.0174H45.6326C45.4651 9.93797 45.7814 8.87717 45.8559 8.65385C45.8559 8.63524 45.8559 8.63524 45.8745 8.61663C45.8745 8.59801 45.8745 8.59801 45.8745 8.59801C46.1164 7.92804 46.2467 7.20223 46.2467 6.43921C46.2281 2.88462 43.3621 0 39.8075 0C36.2529 0 33.3683 2.88462 33.3683 6.43921C33.3683 7.23945 33.5172 8.00248 33.7777 8.70968C33.8708 9.02605 34.1499 10.0496 33.9824 11.0732C9.69583 14.7581 12.0221 44.6278 11.0358 52.9839C10.3658 58.7903 6.04819 63.0149 3.44273 65.062C1.54446 66.5695 0.260345 68.7469 0.0370203 71.1476C-0.577124 77.4752 6.75538 76.8052 6.75538 76.8052H39.64H40.3286H73.2132C73.2132 76.8052 80.5271 77.4752 79.9316 71.1476Z" fill="white"/>
<path d="M39.9752 90C45.428 90 49.9318 86.0174 50.7878 80.8065H29.1812C30.0186 86.0174 34.541 90 39.9752 90Z" fill="white"/>
</g>
<defs>
<clipPath id="clip0_9_813">
<rect width="79.969" height="90" fill="white"/>
</clipPath>
</defs>
</svg>
