<svg width="59" height="50" viewBox="0 0 59 50" fill="none" xmlns="http://www.w3.org/2000/svg">
<path d="M58.0451 17.0944H2.69791C2.50048 17.0944 2.30304 16.9628 2.23723 16.7654C2.17142 16.568 2.30304 16.3047 2.43466 16.2389L16.255 8.14413L30.0753 0.0493583C30.2728 -0.0164528 30.4702 -0.0164528 30.6018 0.0493583L58.2425 16.2389C58.3741 16.3047 58.5057 16.5021 58.5057 16.6996C58.5057 16.897 58.3083 17.0944 58.0451 17.0944ZM4.47481 16.1731H56.2682L30.4044 1.03653L16.7815 8.93386L4.47481 16.1731Z" fill="black"/>
<path d="M19.7428 19.7269H10.6609C10.3976 19.7269 10.2002 19.5295 10.2002 19.2662V16.6338C10.2002 16.3705 10.3976 16.1731 10.6609 16.1731H19.7428C20.0061 16.1731 20.2035 16.3705 20.2035 16.6338V19.2662C20.2693 19.5295 20.0061 19.7269 19.7428 19.7269ZM11.1216 18.8055H19.2821V17.0945H11.1216V18.8055Z" fill="black"/>
<path d="M34.9463 19.7269H25.7986C25.5353 19.7269 25.3379 19.5295 25.3379 19.2662V16.6338C25.3379 16.3705 25.5353 16.1731 25.7986 16.1731H34.9463C35.2096 16.1731 35.407 16.3705 35.407 16.6338V19.2662C35.407 19.5295 35.2096 19.7269 34.9463 19.7269ZM26.2592 18.8055H34.4198V17.0945H26.2592V18.8055Z" fill="black"/>
<path d="M50.0821 19.7269H40.9343C40.6711 19.7269 40.4736 19.5295 40.4736 19.2662V16.6338C40.4736 16.3705 40.6711 16.1731 40.9343 16.1731H50.0821C50.3453 16.1731 50.5427 16.3705 50.5427 16.6338V19.2662C50.5427 19.5295 50.3453 19.7269 50.0821 19.7269ZM41.395 18.8055H49.5556V17.0945H41.395V18.8055Z" fill="black"/>
<path d="M33.0369 41.9709H27.6404C27.3771 41.9709 27.1797 41.7735 27.1797 41.5103V19.2661C27.1797 19.0029 27.3771 18.8054 27.6404 18.8054H33.0369C33.3001 18.8054 33.4976 19.0029 33.4976 19.2661V41.5103C33.4976 41.7735 33.3001 41.9709 33.0369 41.9709ZM28.1669 40.9838H32.5762V19.7268H28.1669V40.9838Z" fill="black"/>
<path d="M48.1736 41.9709H42.7771C42.5138 41.9709 42.3164 41.7735 42.3164 41.5103V19.2661C42.3164 19.0029 42.5138 18.8054 42.7771 18.8054H48.1736C48.4368 18.8054 48.6343 19.0029 48.6343 19.2661V41.5103C48.7001 41.7735 48.4368 41.9709 48.1736 41.9709ZM43.3036 40.9838H47.7129V19.7268H43.3036V40.9838Z" fill="black"/>
<path d="M17.9011 41.9712H12.5046C12.2414 41.9712 12.0439 41.7737 12.0439 41.5105V19.2663C12.0439 19.0031 12.2414 18.8057 12.5046 18.8057H17.9011C18.1644 18.8057 18.3618 19.0031 18.3618 19.2663V41.5105C18.3618 41.7737 18.1644 41.9712 17.9011 41.9712ZM12.9653 40.984H17.3746V19.727H12.9653V40.984Z" fill="black"/>
<path d="M19.7428 44.6034H10.6609C10.3976 44.6034 10.2002 44.4059 10.2002 44.1427V41.5102C10.2002 41.247 10.3976 41.0496 10.6609 41.0496H19.7428C20.0061 41.0496 20.2035 41.247 20.2035 41.5102V44.1427C20.2693 44.4059 20.0061 44.6034 19.7428 44.6034ZM11.1216 43.6162H19.2821V41.9709H11.1216V43.6162Z" fill="black"/>
<path d="M34.9463 44.6034H25.7986C25.5353 44.6034 25.3379 44.4059 25.3379 44.1427V41.5102C25.3379 41.247 25.5353 41.0496 25.7986 41.0496H34.9463C35.2096 41.0496 35.407 41.247 35.407 41.5102V44.1427C35.407 44.4059 35.2096 44.6034 34.9463 44.6034ZM26.2592 43.6162H34.4198V41.9709H26.2592V43.6162Z" fill="black"/>
<path d="M50.0821 44.6036H40.9343C40.6711 44.6036 40.4736 44.4062 40.4736 44.1429V41.5105C40.4736 41.2472 40.6711 41.0498 40.9343 41.0498H50.0821C50.3453 41.0498 50.5427 41.2472 50.5427 41.5105V44.1429C50.5427 44.4062 50.3453 44.6036 50.0821 44.6036ZM41.395 43.6164H49.5556V41.9712H41.395V43.6164Z" fill="black"/>
<path d="M52.9779 47.3017H5.52806C5.26482 47.3017 5.06738 47.1043 5.06738 46.8411V44.1428C5.06738 43.8796 5.26482 43.6821 5.52806 43.6821H52.9779C53.2411 43.6821 53.4386 43.8796 53.4386 44.1428V46.8411C53.4386 47.1043 53.2411 47.3017 52.9779 47.3017ZM5.98874 46.3146H52.5172V44.6035H5.98874V46.3146Z" fill="black"/>
<path d="M57.9796 50.0001H0.460678C0.197433 50.0001 0 49.7369 0 49.4736V46.7754C0 46.5121 0.197433 46.3147 0.460678 46.3147H57.9796C58.2428 46.3147 58.4403 46.5121 58.4403 46.7754V49.4736C58.5061 49.7369 58.2428 50.0001 57.9796 50.0001ZM0.987167 49.013H57.5847V47.3019H0.987167V49.013Z" fill="black"/>
</svg>
