<svg width="114" height="100" viewBox="0 0 114 100" fill="none" xmlns="http://www.w3.org/2000/svg">
<path d="M18.2234 10.8882H9.62744V12.2063H18.2234V10.8882Z" fill="white"/>
<path d="M35.4153 4.29799V10.8883H26.8193V4.29799C26.8193 1.94842 28.7678 0 31.1173 0C32.3208 0 33.3523 0.458453 34.1546 1.26075C34.8996 2.00573 35.4153 3.09456 35.4153 4.29799Z" fill="white"/>
<path d="M35.4153 10.8882H26.8193V12.2063H35.4153V10.8882Z" fill="white"/>
<path d="M52.5501 4.29799V10.8883H43.9541V4.29799C43.9541 1.94842 45.8452 0 48.2521 0C49.4555 0 50.4871 0.458453 51.2893 1.26075C52.0916 2.00573 52.5501 3.09456 52.5501 4.29799Z" fill="white"/>
<path d="M52.6072 10.8882H44.0112V12.2063H52.6072V10.8882Z" fill="white"/>
<path d="M69.742 4.29799V10.8883H61.146V4.29799C61.146 1.94842 63.0944 0 65.444 0C66.6474 0 67.6789 0.458453 68.4812 1.26075C69.2262 2.00573 69.742 3.09456 69.742 4.29799Z" fill="white"/>
<path d="M69.742 10.8882H61.146V12.2063H69.742V10.8882Z" fill="white"/>
<path d="M86.8767 4.29799V10.8883H78.2808V4.29799C78.2808 1.94842 80.1719 0 82.5788 0C83.7822 0 84.8137 0.458453 85.616 1.26075C86.4183 2.00573 86.8767 3.09456 86.8767 4.29799Z" fill="white"/>
<path d="M86.9339 10.8882H78.3379V12.2063H86.9339V10.8882Z" fill="white"/>
<path d="M104.069 4.29799V10.8883H95.4727V4.29799C95.4727 1.94842 97.4211 0 99.7707 0C100.974 0 102.006 0.458453 102.808 1.26075C103.553 2.00573 104.069 3.09456 104.069 4.29799Z" fill="white"/>
<path d="M18.2234 4.29799V10.8883H9.62744V4.29799C9.62744 1.94842 11.5759 0 13.9254 0C15.1289 0 16.1604 0.458453 16.9627 1.26075C17.765 2.00573 18.2234 3.09456 18.2234 4.29799Z" fill="white"/>
<path d="M104.069 10.8882H95.4727V12.2063H104.069V10.8882Z" fill="white"/>
<path d="M0 38.7966V95.2436C0 97.8797 2.12034 100 4.75645 100H108.997C111.633 100 113.754 97.8797 113.754 95.2436V38.7966H0ZM16.7908 89.9714H7.7937V80.2292H16.7908V89.9714ZM16.7908 72.6648H7.7937V62.9226H16.7908V72.6648ZM16.7908 55.3582H7.7937V45.6161H16.7908V55.3582ZM34.6132 89.9714H25.616V80.2292H34.6132V89.9714ZM34.6132 72.6648H25.616V62.9226H34.6132V72.6648ZM34.6132 55.3582H25.616V45.6161H34.6132V55.3582ZM52.4355 89.9714H43.4384V80.2292H52.4355V89.9714ZM52.4355 72.6648H43.4384V62.9226H52.4355V72.6648ZM52.4355 55.3582H43.4384V45.6161H52.4355V55.3582ZM70.2579 89.9714H61.2607V80.2292H70.2579V89.9714ZM70.2579 72.6648H61.2607V62.9226H70.2579V72.6648ZM70.2579 55.3582H61.2607V45.6161H70.2579V55.3582ZM88.0802 89.9714H79.0831V80.2292H88.0802V89.9714ZM88.0802 72.6648H79.0831V62.9226H88.0802V72.6648ZM88.0802 55.3582H79.0831V45.6161H88.0802V55.3582ZM105.903 89.9714H96.9054V80.2292H105.903V89.9714ZM105.903 72.6648H96.9054V62.9226H105.903V72.6648ZM105.903 55.3582H96.9054V45.6161H105.903V55.3582Z" fill="white"/>
<path d="M113.696 16.9627V29.7994H0V16.9627C0 14.3266 2.12034 12.2063 4.75645 12.2063H108.997C111.576 12.2063 113.696 14.3266 113.696 16.9627Z" fill="white"/>
</svg>
