<svg width="60" height="60" viewBox="0 0 60 60" fill="none" xmlns="http://www.w3.org/2000/svg">
<path d="M30 0C13.44 0 0 13.44 0 30C0 46.56 13.44 60 30 60C46.56 60 60 46.56 60 30C60 13.44 46.56 0 30 0ZM3 20.07L6.87 20.88C10.95 11.67 20.22 5.58 30.39 5.58C39.54 5.58 48.09 10.5 52.68 18.45L49.26 20.43C45.39 13.71 38.16 9.54 30.39 9.54C22.08 9.54 14.46 14.37 10.83 21.72L14.55 22.5L6.66 31.29L3 20.07ZM25.92 37.74C24.75 37.35 23.79 36.87 23.07 36.3L24.54 33.06C25.2 33.57 26.01 33.96 26.91 34.32C27.81 34.65 28.74 34.86 29.7 34.95V30.51C28.44 30.21 27.39 29.88 26.52 29.52C25.65 29.16 24.93 28.59 24.36 27.9C23.76 27.18 23.49 26.25 23.49 25.05C23.49 23.58 24.03 22.32 25.08 21.27C26.16 20.22 27.69 19.59 29.7 19.35V16.41H32.34V19.29C34.5 19.47 36.3 20.01 37.71 20.91L36.39 24.18C35.07 23.43 33.72 22.95 32.34 22.8V27.3C33.57 27.57 34.62 27.9 35.49 28.26C36.36 28.62 37.08 29.16 37.65 29.88C38.25 30.6 38.52 31.53 38.52 32.7C38.52 34.14 37.98 35.4 36.93 36.42C35.88 37.44 34.35 38.1 32.34 38.34V41.31H29.7V38.43C28.35 38.37 27.09 38.13 25.92 37.74ZM29.61 54.42C20.46 54.42 11.94 49.5 7.35 41.55L10.77 39.57C14.64 46.29 21.87 50.46 29.61 50.46C37.92 50.46 45.54 45.63 49.17 38.28L45.45 37.5L53.34 28.71L57 39.96L53.1 39.15C49.02 48.33 39.75 54.42 29.61 54.42Z" fill="#076AD0"/>
<path d="M29.6402 22.8599V26.6099C29.0102 26.3999 28.5302 26.1899 28.1702 25.8899C27.8402 25.6199 27.6602 25.2599 27.6602 24.8099C27.6602 24.3599 27.8102 23.9399 28.1402 23.6099C28.4702 23.2799 28.9802 23.0399 29.6402 22.8599Z" fill="#076AD0"/>
<path d="M34.2003 33.03C34.2003 33.48 34.0503 33.84 33.7203 34.17C33.3903 34.5 32.9403 34.71 32.2803 34.86V31.2C32.9103 31.41 33.3603 31.65 33.6903 31.95C34.0503 32.22 34.2003 32.58 34.2003 33.03Z" fill="#076AD0"/>
</svg>
