<svg width="60" height="36" viewBox="0 0 60 36" fill="none" xmlns="http://www.w3.org/2000/svg">
<path fill-rule="evenodd" clip-rule="evenodd" d="M12.5065 2.26953C8.13675 2.26953 4.5957 5.81058 4.5957 10.1804C4.5957 14.5502 8.13675 18.0912 12.5065 18.0912C16.8764 18.0912 20.4174 14.5502 20.4174 10.1804C20.4174 5.81058 16.8764 2.26953 12.5065 2.26953Z" fill="black"/>
<path fill-rule="evenodd" clip-rule="evenodd" d="M48.03 2.26953C43.6602 2.26953 40.1191 5.81058 40.1191 10.1804C40.1191 14.5502 43.6602 18.0912 48.03 18.0912C52.3998 18.0912 55.9408 14.5502 55.9408 10.1804C55.9408 5.81058 52.3998 2.26953 48.03 2.26953Z" fill="black"/>
<path fill-rule="evenodd" clip-rule="evenodd" d="M35.5234 35.2504V28.1024V25.8893V25.8798V23.6667C35.5234 23.6008 35.5234 23.5254 35.5329 23.4595V23.4124V23.3559L35.5423 23.2523L35.5517 23.1487L35.5705 23.0451L35.5894 22.9415L35.6082 22.8379L35.627 22.7343L35.6459 22.6307L35.6741 22.5271L35.7024 22.433L35.7306 22.3388L35.7589 22.2446L35.7871 22.1504L35.8248 22.0563L35.8625 21.9621L35.9001 21.8679L35.9378 21.7737L35.9755 21.6796L36.0226 21.5854L36.0697 21.4912L36.1167 21.4064L36.1638 21.3217L36.2109 21.2369L36.258 21.1522L36.3145 21.0674L36.371 20.9826L36.4275 20.8979L36.484 20.8131L36.5405 20.7378L36.5971 20.6624L36.663 20.5871L36.7289 20.5118L36.7948 20.4364L36.8607 20.3611L36.9267 20.2857L36.9926 20.2104L37.0585 20.1445L37.1339 20.0785L37.2092 20.0126L37.2845 19.9467L37.3599 19.8808L37.4352 19.8149L37.5106 19.7583L37.5859 19.7018L37.6612 19.6453L37.746 19.5888L37.8308 19.5323L37.9155 19.4758L38.0003 19.4287L38.085 19.3816L38.1698 19.3345L38.2546 19.2875L38.3393 19.2404L38.4335 19.1933L38.5277 19.1556L38.6219 19.1179L38.716 19.0803L38.8102 19.0426L38.9044 19.0049L38.9986 18.9767L39.0927 18.9484L39.1869 18.9202H39.1963L39.3188 18.8919L39.4412 18.8637H39.4506H39.46H39.4694H39.4789H39.4883H39.4977H39.5071H39.5165H39.5259H39.5354H39.5448H39.5542H39.5636H39.573H39.5825H39.5919H39.6013H39.6107H39.6201H39.6295H39.639H39.6484H39.6578H39.6672H39.6766H39.686H39.6955H39.7049H39.7143H39.7237H39.7331H39.7426H39.752H39.7614H39.7708H39.7802H39.7896H39.7991H39.8085H39.8179H39.8273H39.8367H39.8461H39.8556H39.865H39.8744H39.8838H39.8932H39.9027H39.9121H39.9215H39.9309H39.9403H39.9497H39.9592H39.9686H39.978H39.9874H39.9968H40.0062H40.0157H40.0251H40.0345H40.0439L40.1663 18.8542H40.1758H40.2982H40.3076H40.43H40.4395H41.1175L41.1929 18.9108L41.2682 18.9673L41.3436 19.0238L41.4189 19.0803L41.4942 19.1368L41.5696 19.1933L41.6543 19.2498L41.7391 19.3063L41.8239 19.3628L41.9086 19.4193L41.9934 19.4758L42.0781 19.5323L42.1629 19.5794L42.2477 19.6265L42.3324 19.6736L42.4172 19.7207L42.5019 19.7678L42.5867 19.8149L42.6715 19.8619L42.7562 19.909L42.841 19.9561L42.9257 20.0032L43.0105 20.0503L43.0952 20.0974L43.1894 20.1351L43.2836 20.1727L43.3778 20.2104L43.472 20.2481L43.5661 20.2857L43.6603 20.3234L43.7545 20.3611L43.8487 20.3987L43.9428 20.4364L44.037 20.4741L44.1312 20.5118L44.2254 20.5494L44.3195 20.5777L44.4137 20.6059L44.5079 20.6342L44.6021 20.6624L44.6963 20.6907L44.7904 20.7189L44.8846 20.7472L44.9788 20.7755L45.073 20.8037L45.1671 20.832L45.2613 20.8602L45.3555 20.879L45.4497 20.8979L45.5438 20.9167L45.638 20.9356L45.7322 20.9544L45.8358 20.9732L45.9394 20.9921L46.043 21.0109L46.1466 21.0297L46.2502 21.0486L46.3538 21.0674L46.4574 21.0768L46.561 21.0862L46.6645 21.0957L46.7681 21.1051L46.8717 21.1145L46.9753 21.1239L47.0789 21.1333H47.0883L47.1919 21.1427H47.2014L47.3049 21.1522H47.3144H47.418H47.4274H47.531H47.5404H47.644H47.6534H47.757H47.7664H47.87H47.8794H47.983H47.9924H48.096H48.1054H48.209H48.2185L48.3221 21.1427H48.3315L48.4351 21.1333H48.4445L48.5481 21.1239L48.6517 21.1145L48.7553 21.1051L48.8589 21.0957L48.9625 21.0862L49.0661 21.0768L49.1696 21.0674L49.2732 21.0486L49.3768 21.0297L49.4804 21.0109L49.584 20.9921L49.6876 20.9732L49.7912 20.9544L49.8854 20.9356L49.9796 20.9167L50.0737 20.8979L50.1679 20.879L50.2621 20.8602L50.3563 20.832L50.4505 20.8037L50.5446 20.7755L50.6388 20.7472L50.733 20.7189L50.8272 20.6907L50.9213 20.6624L51.0155 20.6342L51.1097 20.6059L51.2039 20.5777L51.298 20.5494L51.3922 20.5118L51.4864 20.4741L51.5806 20.4364L51.6747 20.3987L51.7689 20.3611L51.8631 20.3234L51.9573 20.2857L52.0515 20.2481L52.1456 20.2104L52.2398 20.1727L52.334 20.1351L52.4282 20.0974L52.5129 20.0503L52.5977 20.0032L52.6824 19.9561L52.7672 19.909L52.852 19.8619L52.9367 19.8149L53.0215 19.7678L53.1062 19.7207L53.191 19.6736L53.2758 19.6265L53.3605 19.5794L53.4453 19.5323L53.53 19.4758L53.6148 19.4193L53.6995 19.3628L53.7843 19.3063L53.8691 19.2498L53.9538 19.1933L54.0292 19.1368L54.1045 19.0803L54.1798 19.0238L54.2552 18.9673L54.3305 18.9108L54.4059 18.8542H55.0839H55.0934H55.2158H55.2252H55.3476H55.3571L55.4795 18.8637H55.4889H55.4983H55.5077H55.5172H55.5266H55.536H55.5454H55.5548H55.5642H55.5737H55.5831H55.5925H55.6019H55.6113H55.6208H55.6302H55.6396H55.649H55.6584H55.6678H55.6773H55.6867H55.6961H55.7055H55.7149H55.7243H55.7338H55.7432H55.7526H55.762H55.7714H55.7809H55.7903H55.7997H55.8091H55.8185H55.8279H55.8374H55.8468H55.8562H55.8656H55.875H55.8845H55.8939H55.9033H55.9127H55.9221H55.9315H55.941H55.9504H55.9598H55.9692H55.9786H55.988H55.9975H56.0069H56.0163H56.0257H56.0351H56.0445H56.054H56.0634H56.0728H56.0822L56.2046 18.8919L56.3271 18.9202H56.3365L56.4307 18.9484L56.5249 18.9767L56.619 19.0049L56.7132 19.0426L56.8074 19.0803L56.9016 19.1179L56.9957 19.1556L57.0899 19.1933L57.1841 19.2404L57.2688 19.2875L57.3536 19.3345L57.4384 19.3816L57.5231 19.4287L57.6079 19.4758L57.6926 19.5323L57.7774 19.5888L57.8622 19.6453L57.9375 19.7018L58.0128 19.7583L58.0882 19.8149L58.1635 19.8808L58.2389 19.9467L58.3142 20.0126L58.3896 20.0785L58.4649 20.1445L58.5308 20.2104L58.5967 20.2857L58.6627 20.3611L58.7286 20.4364L58.7945 20.5118L58.8604 20.5871L58.9264 20.6624L58.9829 20.7378L59.0394 20.8131L59.0959 20.8979L59.1524 20.9826L59.2089 21.0674L59.2654 21.1522L59.3125 21.2369L59.3596 21.3217L59.4067 21.4064L59.4537 21.4912L59.5008 21.5854L59.5479 21.6796L59.5856 21.7737L59.6233 21.8679L59.6609 21.9621L59.6986 22.0563L59.7363 22.1504L59.7645 22.2446L59.7928 22.3388L59.821 22.433L59.8493 22.5271L59.8775 22.6307L59.8964 22.7343L59.9152 22.8379L59.9341 22.9415L59.9529 23.0451L59.9717 23.1487L59.9811 23.2523L59.9906 23.3559V23.4124V23.4595C60 23.5254 60 23.6008 60 23.6667V25.8798V25.8893V28.1024V35.2504H35.5234Z" fill="black"/>
<path fill-rule="evenodd" clip-rule="evenodd" d="M0 35.2504V28.1024V25.8892V25.8798V23.6666C0 23.6007 0 23.5254 0.00941767 23.4595V23.4124V23.3559L0.0188353 23.2523L0.028253 23.1487L0.0470884 23.0451L0.0659237 22.9415L0.0847591 22.8379L0.103594 22.7343L0.12243 22.6307L0.150683 22.5271L0.178936 22.4329L0.207189 22.3388L0.235442 22.2446L0.263695 22.1504L0.301366 22.0562L0.339036 21.962L0.376707 21.8679L0.414378 21.7737L0.452048 21.6795L0.499137 21.5853L0.546225 21.4912L0.593313 21.4064L0.640402 21.3216L0.68749 21.2369L0.734579 21.1521L0.791085 21.0674L0.847591 20.9826L0.904097 20.8978L0.960603 20.8131L1.01711 20.7377L1.07361 20.6624L1.13954 20.5871L1.20546 20.5117L1.27139 20.4364L1.33731 20.361L1.40323 20.2857L1.46916 20.2104L1.53508 20.1444L1.61042 20.0785L1.68576 20.0126L1.78936 19.9655L1.8647 19.8996L1.94004 19.8337L2.01538 19.7771L2.09072 19.7206L2.16606 19.6641L2.25082 19.6076L2.33558 19.5511L2.42034 19.4946L2.5051 19.4475L2.58986 19.4004L2.67462 19.3533L2.75938 19.3063L2.84414 19.2592L2.93831 19.2121L3.03249 19.1744L3.12667 19.1367L3.22084 19.0991L3.31502 19.0614L3.4092 19.0237L3.50337 18.9955L3.59755 18.9672L3.69173 18.939H3.70115L3.82358 18.9107L3.94601 18.8825H3.95542H3.96484H3.97426H3.98368H3.99309H4.00251H4.01193H4.02135H4.03076H4.04018H4.0496H4.05902H4.06844H4.07785H4.08727H4.09669H4.10611H4.11552H4.12494H4.13436H4.14378H4.15319H4.16261H4.17203H4.18145H4.19087H4.20028H4.2097H4.21912H4.22854H4.23795H4.24737H4.25679H4.26621H4.27562H4.28504H4.29446H4.30388H4.31329H4.32271H4.33213H4.34155H4.35097H4.36038H4.3698H4.37922H4.38864H4.39805H4.40747H4.41689H4.42631H4.43572H4.44514H4.45456H4.46398H4.4734H4.48281H4.49223H4.50165H4.51107H4.52048H4.5299H4.53932H4.54874L4.67117 18.873H4.68058H4.80301H4.81243H4.93486H4.94428H5.62235L5.69769 18.9296L5.77303 18.9861L5.84838 19.0426L5.92372 19.0991L5.99906 19.1556L6.0744 19.2121L6.15916 19.2686L6.24392 19.3251L6.32868 19.3816L6.41344 19.4381L6.4982 19.4946L6.58295 19.5511L6.66771 19.5982L6.75247 19.6453L6.83723 19.6924L6.92199 19.7395L7.00675 19.7866L7.09151 19.8337L7.17627 19.8807L7.26103 19.9278L7.34579 19.9749L7.43054 20.022L7.5153 20.0691L7.60006 20.1162L7.69424 20.1539L7.78842 20.1915L7.88259 20.2292L7.97677 20.2669L8.07095 20.3045L8.16512 20.3422L8.2593 20.3799L8.35348 20.4175L8.44765 20.4552L8.54183 20.4929L8.63601 20.5306L8.73018 20.5682L8.82436 20.5965L8.91854 20.6247L9.01271 20.653L9.10689 20.6812L9.20107 20.7095L9.29524 20.7377L9.38942 20.766L9.4836 20.7943L9.57777 20.8225L9.67195 20.8508L9.76613 20.879L9.8603 20.8978L9.95448 20.9167L10.0487 20.9355L10.1428 20.9544L10.237 20.9732L10.3406 20.992L10.4442 21.0109L10.5478 21.0297L10.6514 21.0485L10.755 21.0674L10.8586 21.0862L10.9622 21.0956L11.0658 21.105L11.1694 21.1145L11.273 21.1239L11.3766 21.1333L11.4801 21.1427L11.5837 21.1521H11.5932L11.6968 21.1615H11.7062L11.8098 21.171H11.8192H11.9228H11.9322H12.0358H12.0452H12.1488H12.1582H12.2618H12.2712H12.3748H12.3842H12.4878H12.4973H12.6008H12.6103H12.7139H12.7233L12.8269 21.1615H12.8363L12.9399 21.1521H12.9493L13.0529 21.1427L13.1565 21.1333L13.2601 21.1239L13.3637 21.1145L13.4673 21.105L13.5709 21.0956L13.6745 21.0862L13.7781 21.0674L13.8817 21.0485L13.9852 21.0297L14.0888 21.0109L14.1924 20.992L14.296 20.9732L14.3902 20.9544L14.4844 20.9355L14.5786 20.9167L14.6727 20.8978L14.7669 20.879L14.8611 20.8508L14.9553 20.8225L15.0494 20.7943L15.1436 20.766L15.2378 20.7377L15.332 20.7095L15.4262 20.6812L15.5203 20.653L15.6145 20.6247L15.7087 20.5965L15.8029 20.5682L15.897 20.5306L15.9912 20.4929L16.0854 20.4552L16.1796 20.4175L16.2737 20.3799L16.3679 20.3422L16.4621 20.3045L16.5563 20.2669L16.6504 20.2292L16.7446 20.1915L16.8388 20.1539L16.933 20.1162L17.0177 20.0691L17.1025 20.022L17.1873 19.9749L17.272 19.9278L17.3568 19.8807L17.4415 19.8337L17.5263 19.7866L17.611 19.7395L17.6958 19.6924L17.7806 19.6453L17.8653 19.5982L17.9501 19.5511L18.0348 19.4946L18.1196 19.4381L18.2044 19.3816L18.2891 19.3251L18.3739 19.2686L18.4586 19.2121L18.534 19.1556L18.6093 19.0991L18.6847 19.0426L18.76 18.9861L18.8353 18.9296L18.9107 18.873H19.5888H19.5982H19.7206H19.73H19.8525H19.8619L19.9843 18.8825H19.9937H20.0031H20.0126H20.022H20.0314H20.0408H20.0502H20.0596H20.0691H20.0785H20.0879H20.0973H20.1067H20.1162H20.1256H20.135H20.1444H20.1538H20.1632H20.1727H20.1821H20.1915H20.2009H20.2103H20.2197H20.2292H20.2386H20.248H20.2574H20.2668H20.2763H20.2857H20.2951H20.3045H20.3139H20.3233H20.3328H20.3422H20.3516H20.361H20.3704H20.3798H20.3893H20.3987H20.4081H20.4175H20.4269H20.4364H20.4458H20.4552H20.4646H20.474H20.4834H20.4929H20.5023H20.5117H20.5211H20.5305H20.5399H20.5494H20.5588H20.5682H20.5776H20.587L20.7095 18.9107L20.8319 18.939H20.8413L20.9355 18.9672L21.0297 18.9955L21.1238 19.0237L21.218 19.0614L21.3122 19.0991L21.4064 19.1367L21.5005 19.1744L21.5947 19.2121L21.6889 19.2592L21.7737 19.3063L21.8584 19.3533L21.9432 19.4004L22.0279 19.4475L22.1127 19.4946L22.1975 19.5511L22.2822 19.6076L22.367 19.6641L22.4423 19.7206L22.5177 19.7771L22.593 19.8337L22.6683 19.8996L22.7437 19.9655L22.819 20.0314L22.8944 20.0973L22.9697 20.1633L23.0356 20.2292L23.1016 20.3045L23.1675 20.3799L23.2334 20.4552L23.2993 20.5306L23.3652 20.6059L23.4312 20.6812L23.4877 20.7566L23.5442 20.8319L23.6007 20.9167L23.6572 21.0014L23.7137 21.0862L23.7702 21.171L23.8173 21.2557L23.8644 21.3405L23.9115 21.4252L23.9586 21.51L24.0056 21.6042L24.0527 21.6983L24.0904 21.7925L24.1281 21.8867L24.1658 21.9809L24.2034 22.0751L24.2411 22.1692L24.2693 22.2634L24.2976 22.3576L24.3259 22.4518L24.3541 22.5459L24.3824 22.6495L24.4012 22.7531L24.42 22.8567L24.4389 22.9603L24.4577 23.0639L24.4765 23.1675L24.486 23.2711L24.4954 23.3747V23.4312V23.4783C24.5048 23.5442 24.5048 23.6196 24.5048 23.6855V25.8986V25.9081V28.1212V35.2692H0V35.2504Z" fill="black"/>
<path fill-rule="evenodd" clip-rule="evenodd" d="M19.3066 20.0691V19.6453V19.6359V17.7994C19.3066 17.7429 19.3066 17.6864 19.3161 17.6299V17.5922V17.5451L19.3255 17.4604L19.3349 17.3756L19.3443 17.2908L19.3631 17.2061L19.382 17.1213L19.4008 17.0366L19.4197 16.9518L19.4385 16.8671L19.4573 16.7823L19.4856 16.6975L19.5138 16.6128L19.5421 16.5374L19.5703 16.4621L19.5986 16.3868L19.6268 16.3114L19.6551 16.2361L19.6928 16.1607L19.7304 16.0854L19.7681 16.01L19.8058 15.9347L19.8434 15.8594L19.8811 15.784L19.9282 15.7087L19.9753 15.6428L20.0224 15.5768L20.0695 15.5109L20.1166 15.445L20.1636 15.3791L20.2107 15.3131L20.2578 15.2472L20.3143 15.1813L20.3708 15.1154L20.4273 15.0589L20.4839 15.0024L20.5404 14.9458L20.5969 14.8893L20.6534 14.8328L20.7099 14.7763L20.7758 14.7198L20.8417 14.6633L20.9076 14.6162L20.9736 14.5691L21.0395 14.5221L21.1054 14.475L21.1713 14.4279L21.2373 14.3808L21.3032 14.3337L21.3785 14.2866L21.4539 14.2489L21.5292 14.2113L21.6046 14.1736L21.6799 14.1359L21.7552 14.0983L21.8306 14.0606L21.9059 14.0323L21.9813 14.0041L22.0566 13.9758L22.1319 13.9476L22.2073 13.9193L22.292 13.8911L22.3768 13.8628L22.4804 13.8346L22.584 13.8063H22.5934H22.6028H22.6122H22.6217H22.6311H22.6405H22.6499H22.6593H22.6688H22.6782H22.6876H22.697H22.7064H22.7158H22.7253H22.7347H22.7441H22.7535H22.7629H22.7723H22.7818H22.7912H22.8006H22.81H22.8194H22.8289H22.8383H22.8477H22.8571H22.8665H22.8759H22.8854H22.8948H22.9042H22.9136H22.923H22.9324H22.9419H22.9513H22.9607H22.9701H22.9795H22.989H22.9984H23.0078H23.0172H23.0266H23.036H23.0455H23.0549H23.0643H23.0737H23.0831H23.0925H23.102H23.1114H23.1208H23.1302H23.1396H23.1491H23.1585H23.1679H23.1773H23.1867L23.2903 13.7969H23.2997H23.3939H23.4033H23.5069H23.5163H24.0814L24.1473 13.844L24.2132 13.8911L24.2792 13.9382L24.3451 13.9852L24.411 14.0323L24.4769 14.0794L24.5429 14.1265L24.6088 14.1736L24.6747 14.2207L24.7406 14.2678L24.8066 14.3149L24.8725 14.362L24.9384 14.409L25.0043 14.4467L25.0703 14.4844L25.1456 14.5221L25.2209 14.5597L25.2963 14.5974L25.3716 14.6351L25.447 14.6727L25.5223 14.7104L25.5976 14.7481L25.673 14.7857L25.7483 14.8234L25.8237 14.8611L25.899 14.8988L25.9744 14.9364L26.0497 14.9647L26.125 14.9929L26.2004 15.0212L26.2757 15.0494L26.3511 15.0777L26.4264 15.1059L26.5017 15.1342L26.5771 15.1625L26.6524 15.1907L26.7278 15.219L26.8031 15.2472L26.8785 15.2755L26.9538 15.3037L27.0291 15.332L27.1045 15.3508L27.1798 15.3696L27.2646 15.3885L27.3493 15.4073L27.4341 15.4262L27.5189 15.445L27.6036 15.4638L27.6884 15.4827L27.7731 15.5015L27.8579 15.5203L27.9426 15.5392L28.0274 15.558L28.1122 15.5768L28.1969 15.5957L28.2817 15.6051L28.3664 15.6145L28.4512 15.6239L28.536 15.6333L28.6207 15.6428L28.7055 15.6522L28.7902 15.6616L28.875 15.671L28.9598 15.6804L29.0445 15.6898H29.0539L29.1387 15.6993H29.1481H29.2329H29.2423H29.327H29.3365H29.4212H29.4306H29.5154H29.5248H29.6096H29.619H29.7038H29.7132H29.7979H29.8073H29.8921H29.9015H29.9863H29.9957H30.0805H30.0899L30.1746 15.6898H30.1841L30.2688 15.6804L30.3536 15.671L30.4383 15.6616L30.5231 15.6522L30.6079 15.6428L30.6926 15.6333L30.7774 15.6239L30.8621 15.6145L30.9469 15.6051L31.0316 15.5957L31.1164 15.5768L31.2012 15.558L31.2859 15.5392L31.3707 15.5203L31.4554 15.5015L31.5402 15.4827L31.625 15.4638L31.7097 15.445L31.7945 15.4262L31.8792 15.4073L31.964 15.3885L32.0488 15.3696L32.1241 15.3508L32.1994 15.332L32.2748 15.3037L32.3501 15.2755L32.4255 15.2472L32.5008 15.219L32.5761 15.1907L32.6515 15.1625L32.7268 15.1342L32.8022 15.1059L32.8775 15.0777L32.9529 15.0494L33.0282 15.0212L33.1035 14.9929L33.1789 14.9647L33.2542 14.9364L33.3296 14.8988L33.4049 14.8611L33.4802 14.8234L33.5556 14.7857L33.6309 14.7481L33.7063 14.7104L33.7816 14.6727L33.8569 14.6351L33.9323 14.5974L34.0076 14.5597L34.083 14.5221L34.1583 14.4844L34.2242 14.4467L34.2902 14.409L34.3561 14.362L34.422 14.3149L34.4879 14.2678L34.5539 14.2207L34.6198 14.1736L34.6857 14.1265L34.7516 14.0794L34.8176 14.0323L34.8835 13.9852L34.9494 13.9382L35.0153 13.8911L35.0812 13.844L35.1472 13.7969H35.7122H35.7216H35.8252H35.8347H35.9288H35.9383L36.0418 13.8063H36.0513H36.0607H36.0701H36.0795H36.0889H36.0984H36.1078H36.1172H36.1266H36.136H36.1454H36.1549H36.1643H36.1737H36.1831H36.1925H36.2019H36.2114H36.2208H36.2302H36.2396H36.249H36.2585H36.2679H36.2773H36.2867H36.2961H36.3055H36.315H36.3244H36.3338H36.3432H36.3526H36.3621H36.3715H36.3809H36.3903H36.3997H36.4091H36.4186H36.428H36.4374H36.4468H36.4562H36.4656H36.4751H36.4845H36.4939H36.5033H36.5127H36.5221H36.5316H36.541H36.5504H36.5598H36.5692H36.5787H36.5881H36.5975H36.6069H36.6163H36.6257H36.6352H36.6446L36.7482 13.8346L36.8518 13.8628L36.9365 13.8911L37.0213 13.9193L37.0966 13.9476L37.172 13.9758L37.2473 14.0041L37.3227 14.0323L37.398 14.0606L37.4733 14.0983L37.5487 14.1359L37.624 14.1736L37.6994 14.2113L37.7747 14.2489L37.85 14.2866L37.9254 14.3337L37.9913 14.3808L38.0572 14.4279L38.1232 14.475L38.1891 14.5221L38.255 14.5691L38.3209 14.6162L38.3869 14.6633L38.4528 14.7198L38.5187 14.7763L38.5752 14.8328L38.6317 14.8893L38.6882 14.9458L38.7447 15.0024L38.8012 15.0589L38.8577 15.1154L38.9142 15.1813L38.9707 15.2472L39.0178 15.3131L39.0649 15.3791L39.112 15.445L39.1591 15.5109L39.2062 15.5768L39.2533 15.6428L39.3004 15.7087L39.3475 15.784L39.3851 15.8594L39.4228 15.9347L39.4605 16.01L39.4981 16.0854L39.5358 16.1607L39.5735 16.2361L39.6017 16.3114L39.63 16.3868L39.6582 16.4621L39.6865 16.5374L39.7147 16.6128L39.743 16.6975L39.7712 16.7823L39.7901 16.8671L39.8089 16.9518L39.8278 17.0366L39.8466 17.1213L39.8654 17.2061L39.8843 17.2908L39.8937 17.3756L39.9031 17.4604L39.9125 17.5451V17.5922V17.6299C39.9219 17.6864 39.9219 17.7429 39.9219 17.7994V19.6359V19.6453V20.0691L39.6865 20.1821L39.5076 20.2763L39.2533 20.4269L39.0178 20.587L38.7824 20.766L38.6317 20.8884L38.4151 21.0862L38.2173 21.3028L38.029 21.5288L37.9065 21.6889L37.737 21.9338L37.6334 22.1033L37.4922 22.367L37.4074 22.5459L37.2944 22.819L37.2285 23.0074L37.1343 23.2899L37.0778 23.4877L37.0307 23.676L36.993 23.8832L36.9648 24.081L36.9459 24.2788C36.9365 24.3635 36.9365 24.4483 36.9365 24.533V27.4337H22.2826V24.533C22.2826 24.4483 22.2826 24.3541 22.2638 24.2693L22.245 24.0998L22.2167 23.8926L22.179 23.6949L22.1131 23.4029L22.0566 23.2051L22.0001 23.0168L21.9248 22.8284L21.8117 22.5553L21.727 22.3764L21.6328 22.1975L21.5292 22.0279L21.4256 21.8584L21.2561 21.623L21.1337 21.4723L21.0112 21.3216L20.8794 21.1803L20.7381 21.0391L20.5969 20.9072L20.4462 20.7754L20.2107 20.587L20.0506 20.474L19.8905 20.3704L19.6363 20.2197L19.4573 20.1256L19.3066 20.0691ZM29.7038 0C26.0685 0 23.1302 2.94773 23.1302 6.57354C23.1302 10.2088 26.0779 13.1471 29.7038 13.1471C33.339 13.1471 36.2773 10.1993 36.2773 6.57354C36.2773 2.94773 33.3296 0 29.7038 0Z" fill="black"/>
</svg>
