<svg width="35" height="30" viewBox="0 0 35 30" fill="none" xmlns="http://www.w3.org/2000/svg">
<path d="M34.3794 10.0494C34.3794 11.086 34.2207 12.1016 33.8822 13.1382C33.2052 16.0578 30.5606 19.5381 26.012 23.4626C22.5106 26.488 18.9245 28.8787 17.909 29.5346L17.1897 30L16.4704 29.5346C15.4549 28.8681 11.8582 26.4774 8.35684 23.452C3.80818 19.5169 1.15303 16.0261 0.476023 13.0853C0.158674 12.1016 0 11.0755 0 10.0494C0 6.39986 1.98872 3.02539 5.19393 1.24824C6.67489 0.43371 8.35684 0 10.0388 0C12.7468 0 15.3068 1.07898 17.2003 2.99365C19.0726 1.07898 21.6326 0 24.3406 0C26.0543 0 27.6834 0.423131 29.1855 1.24824C32.3907 3.02539 34.3794 6.39986 34.3794 10.0494Z" fill="#D6362A"/>
</svg>
