<svg width="35" height="30" viewBox="0 0 35 30" fill="none" xmlns="http://www.w3.org/2000/svg">
<path d="M29.1855 1.24824C27.6834 0.423131 26.0543 0 24.3406 0C21.6326 0 19.0726 1.07898 17.2003 2.99365C15.3068 1.07898 12.7362 0 10.0388 0C8.35684 0 6.67489 0.43371 5.19394 1.24824C1.98872 3.02539 0 6.38928 0 10.0494C0 11.0755 0.158674 12.091 0.476023 13.0853C1.15303 16.0261 3.80818 19.5169 8.35684 23.452C11.8583 26.4774 15.4549 28.8787 16.4704 29.5346L17.1897 30L17.909 29.5346C18.9245 28.8681 22.5106 26.4774 26.012 23.4626C30.5606 19.5381 33.2052 16.0578 33.8822 13.1382C34.2102 12.1016 34.3794 11.0966 34.3794 10.0494C34.3794 6.39986 32.3907 3.02539 29.1855 1.24824ZM31.354 12.366L31.3329 12.4295L31.3223 12.4929C30.804 14.8307 28.3709 17.9302 24.2877 21.4528C21.5056 23.8646 18.6495 25.8533 17.2003 26.8371C15.7405 25.8533 12.8843 23.8646 10.1023 21.4528C6.01904 17.9196 3.57546 14.799 3.05712 12.4401L3.04654 12.3766L3.02539 12.3131C2.78209 11.5726 2.65515 10.811 2.65515 10.0494C2.64457 7.3519 4.11495 4.86601 6.46333 3.56488C7.56347 2.96192 8.80113 2.64457 10.0388 2.64457C12.2496 2.64457 14.323 3.62835 15.7511 5.33145L17.2109 7.08745L18.6707 5.33145C20.0564 3.61777 22.1298 2.64457 24.3406 2.64457C25.61 2.64457 26.8054 2.95134 27.9055 3.56488C30.2645 4.87659 31.7348 7.3519 31.7348 10.0494C31.7348 10.8216 31.6079 11.5832 31.354 12.366Z" fill="#1F1F1F"/>
</svg>
