<svg width="30" height="30" viewBox="0 0 30 30" fill="none" xmlns="http://www.w3.org/2000/svg">
<path d="M14.3823 29.2179C9.97927 29.2179 5.90472 27.2314 3.18313 23.759L4.01994 23.1021C6.53037 26.3086 10.3077 28.1542 14.3823 28.1542C21.6399 28.1542 27.5366 22.2497 27.5366 14.9999C27.5366 7.75018 21.632 1.84559 14.3823 1.84559C9.31452 1.84559 4.64559 4.80179 2.47927 9.38469L1.51733 8.9311C3.86353 3.98063 8.90785 0.781982 14.3823 0.781982C22.2186 0.781982 28.6002 7.16363 28.6002 14.9999C28.6002 22.8362 22.2186 29.2179 14.3823 29.2179Z" fill="#3AAC19"/>
<path d="M14.3823 30C9.73681 30 5.43546 27.9041 2.56528 24.244C2.44015 24.0798 2.37758 23.8764 2.40105 23.6653C2.42451 23.4619 2.534 23.2742 2.69823 23.1413L3.53504 22.4844C3.87133 22.2185 4.36403 22.281 4.62993 22.6173C6.99177 25.6361 10.5502 27.3644 14.3745 27.3644C21.1941 27.3644 26.7467 21.8118 26.7467 14.9922C26.7467 8.17258 21.1941 2.61992 14.3745 2.61992C9.61168 2.61992 5.21648 5.40407 3.18311 9.71324C2.99542 10.1043 2.534 10.2685 2.14296 10.0886L1.18103 9.63504C0.99333 9.54901 0.852558 9.38478 0.782172 9.18926C0.711787 8.99374 0.719607 8.78259 0.813455 8.59489C3.28478 3.3707 8.61064 0 14.3823 0C22.6565 0 29.3823 6.72576 29.3823 15C29.3823 23.2742 22.6487 30 14.3823 30Z" fill="#3AAC19"/>
<path d="M7.56248 9.98705H0.781982V2.72949H1.84559V8.92344H7.56248V9.98705Z" fill="#3AAC19"/>
<path d="M7.56257 10.769H0.782065C0.351929 10.769 0 10.417 0 9.98689V2.72933C0 2.29919 0.351929 1.94727 0.782065 1.94727H1.84567C2.27581 1.94727 2.62774 2.29919 2.62774 2.72933V8.14122H7.57039C8.00052 8.14122 8.35245 8.49315 8.35245 8.92328V9.98689C8.34463 10.417 8.00052 10.769 7.56257 10.769Z" fill="#3AAC19"/>
<path d="M10.0105 19.0589L9.31445 18.2612L13.9052 14.2258V6.09229H14.9688V14.7106L10.0105 19.0589Z" fill="#3AAC19"/>
<path d="M10.0105 19.8411C9.99483 19.8411 9.97919 19.8411 9.95573 19.8411C9.75239 19.8254 9.55688 19.7316 9.41611 19.5752L8.72007 18.7775C8.43852 18.449 8.46981 17.9563 8.79045 17.6747L13.1231 13.8817V6.09237C13.1231 5.66223 13.475 5.3103 13.9052 5.3103H14.9688C15.3989 5.3103 15.7508 5.66223 15.7508 6.09237V14.7107C15.7508 14.9375 15.657 15.1487 15.4849 15.2973L10.5266 19.6455C10.3859 19.7707 10.1982 19.8411 10.0105 19.8411Z" fill="#3AAC19"/>
</svg>
