<svg width="94" height="100" viewBox="0 0 94 100" fill="none" xmlns="http://www.w3.org/2000/svg">
<path d="M0.0253906 46.8976V100H19.4225V46.8976H0.0253906ZM16.0364 78.9587C16.0364 80.2701 15.0185 81.3467 13.7463 81.3467H5.68208C4.42938 81.3467 3.392 80.2701 3.392 78.9587V77.1188C3.392 75.7878 4.40981 74.7309 5.68208 74.7309H13.7659C15.0185 74.7309 16.0559 75.8074 16.0559 77.1188V78.9587H16.0364ZM16.0364 68.5261C16.0364 69.8571 15.0185 70.9141 13.7463 70.9141H5.68208C4.42938 70.9141 3.392 69.8376 3.392 68.5261V66.6863C3.392 65.3553 4.40981 64.2983 5.68208 64.2983H13.7659C15.0185 64.2983 16.0559 65.3748 16.0559 66.6863V68.5261H16.0364ZM16.0364 58.0936C16.0364 59.4246 15.0185 60.4815 13.7463 60.4815H5.68208C4.42938 60.4815 3.392 59.405 3.392 58.0936V56.2537C3.392 54.9227 4.40981 53.8657 5.68208 53.8657H13.7659C15.0185 53.8657 16.0559 54.9423 16.0559 56.2537V58.0936H16.0364Z" fill="white"/>
<path d="M73.6406 46.8976V100H93.0378V46.8976H73.6406ZM89.6516 78.9587C89.6516 80.2701 88.6338 81.3467 87.3615 81.3467H79.2777C78.025 81.3467 76.9877 80.2701 76.9877 78.9587V77.1188C76.9877 75.7878 78.0055 74.7309 79.2777 74.7309H87.3615C88.6142 74.7309 89.6516 75.8074 89.6516 77.1188V78.9587ZM89.6516 68.5261C89.6516 69.8571 88.6338 70.9141 87.3615 70.9141H79.2777C78.025 70.9141 76.9877 69.8376 76.9877 68.5261V66.6863C76.9877 65.3553 78.0055 64.2983 79.2777 64.2983H87.3615C88.6142 64.2983 89.6516 65.3748 89.6516 66.6863V68.5261ZM89.6516 58.0936C89.6516 59.4246 88.6338 60.4815 87.3615 60.4815H79.2777C78.025 60.4815 76.9877 59.405 76.9877 58.0936V56.2537C76.9877 54.9227 78.0055 53.8657 79.2777 53.8657H87.3615C88.6142 53.8657 89.6516 54.9423 89.6516 56.2537V58.0936Z" fill="white"/>
<path d="M53.5193 87.5122H39.5244V100H53.5193V87.5122Z" fill="white"/>
<path d="M25.7251 24.3883V100H34.1025V82.0709H58.9606V100H67.3379V24.3883H25.7251ZM39.3873 73.7326C39.3873 74.9462 38.4086 75.9248 37.1951 75.9248H34.9637C33.7502 75.9248 32.7715 74.9462 32.7715 73.7326V66.9407C32.7715 65.7271 33.7502 64.7485 34.9637 64.7485H37.1951C38.4086 64.7485 39.3873 65.7271 39.3873 66.9407V73.7326ZM39.3873 58.7199C39.3873 59.9335 38.4086 60.9121 37.1951 60.9121H34.9637C33.7502 60.9121 32.7715 59.9335 32.7715 58.7199V51.928C32.7715 50.7144 33.7502 49.7358 34.9637 49.7358H37.1951C38.4086 49.7358 39.3873 50.7144 39.3873 51.928V58.7199ZM39.3873 43.7268C39.3873 44.9403 38.4086 45.919 37.1951 45.919H34.9637C33.7502 45.919 32.7715 44.9403 32.7715 43.7268V36.9348C32.7715 35.7213 33.7502 34.7426 34.9637 34.7426H37.1951C38.4086 34.7426 39.3873 35.7213 39.3873 36.9348V43.7268ZM49.8394 73.7326C49.8394 74.9462 48.8607 75.9248 47.6472 75.9248H45.4158C44.2023 75.9248 43.2236 74.9462 43.2236 73.7326V66.9407C43.2236 65.7271 44.2023 64.7485 45.4158 64.7485H47.6472C48.8607 64.7485 49.8394 65.7271 49.8394 66.9407V73.7326ZM49.8394 58.7199C49.8394 59.9335 48.8607 60.9121 47.6472 60.9121H45.4158C44.2023 60.9121 43.2236 59.9335 43.2236 58.7199V51.928C43.2236 50.7144 44.2023 49.7358 45.4158 49.7358H47.6472C48.8607 49.7358 49.8394 50.7144 49.8394 51.928V58.7199ZM49.8394 43.7268C49.8394 44.9403 48.8607 45.919 47.6472 45.919H45.4158C44.2023 45.919 43.2236 44.9403 43.2236 43.7268V36.9348C43.2236 35.7213 44.2023 34.7426 45.4158 34.7426H47.6472C48.8607 34.7426 49.8394 35.7213 49.8394 36.9348V43.7268ZM60.272 73.7326C60.272 74.9462 59.2933 75.9248 58.0798 75.9248H55.8484C54.6349 75.9248 53.6562 74.9462 53.6562 73.7326V66.9407C53.6562 65.7271 54.6349 64.7485 55.8484 64.7485H58.0798C59.2933 64.7485 60.272 65.7271 60.272 66.9407V73.7326ZM60.272 58.7199C60.272 59.9335 59.2933 60.9121 58.0798 60.9121H55.8484C54.6349 60.9121 53.6562 59.9335 53.6562 58.7199V51.928C53.6562 50.7144 54.6349 49.7358 55.8484 49.7358H58.0798C59.2933 49.7358 60.272 50.7144 60.272 51.928V58.7199ZM60.272 43.7268C60.272 44.9403 59.2933 45.919 58.0798 45.919H55.8484C54.6349 45.919 53.6562 44.9403 53.6562 43.7268V36.9348C53.6562 35.7213 54.6349 34.7426 55.8484 34.7426H58.0798C59.2933 34.7426 60.272 35.7213 60.272 36.9348V43.7268Z" fill="white"/>
<path d="M46.7663 0.17616L48.7041 6.14602C48.7432 6.24388 48.8411 6.32218 48.9585 6.32218H55.2416C55.496 6.32218 55.5939 6.63535 55.3981 6.79194L50.3091 10.4913C50.2112 10.55 50.1721 10.6674 50.2112 10.7849L52.149 16.7547C52.2273 16.9896 51.9532 17.1854 51.7575 17.0483L46.6684 13.349C46.5706 13.2903 46.4531 13.2903 46.3748 13.349L41.2858 17.0483C41.09 17.1854 40.816 16.9896 40.8943 16.7547L42.8321 10.7849C42.8712 10.687 42.8321 10.5696 42.7342 10.4913L37.6451 6.79194C37.4494 6.65492 37.5473 6.32218 37.8017 6.32218H44.0848C44.2022 6.32218 44.3001 6.24388 44.3392 6.14602L46.277 0.17616C46.3553 -0.0587199 46.688 -0.0587199 46.7663 0.17616Z" fill="white"/>
<path d="M67.573 5.44139L69.5107 11.4112C69.5499 11.5091 69.6477 11.5874 69.7652 11.5874H76.0482C76.3026 11.5874 76.4005 11.9006 76.2048 12.0572L71.1157 15.7565C71.0178 15.8152 70.9787 15.9327 71.0178 16.0501L72.9556 22.02C73.0339 22.2549 72.7599 22.4506 72.5641 22.3136L67.4751 18.6142C67.3772 18.5555 67.2598 18.5555 67.1815 18.6142L62.0924 22.3136C61.8967 22.4506 61.6227 22.2549 61.701 22.02L63.6387 16.0501C63.6779 15.9523 63.6387 15.8348 63.5409 15.7565L58.4518 12.0572C58.2561 11.9202 58.3539 11.5874 58.6084 11.5874H64.8914C65.0088 11.5874 65.1067 11.5091 65.1459 11.4112L67.0836 5.44139C67.1619 5.20651 67.4947 5.20651 67.573 5.44139Z" fill="white"/>
<path d="M84.3081 16.3437L86.2458 22.3136C86.285 22.4114 86.3828 22.4897 86.5003 22.4897H92.7833C93.0378 22.4897 93.1356 22.8029 92.9399 22.9595L87.8508 26.6588C87.753 26.7176 87.7138 26.835 87.753 26.9524L89.6907 32.9223C89.769 33.1572 89.495 33.3529 89.2993 33.2159L84.2102 29.5165C84.1123 29.4578 83.9949 29.4578 83.9166 29.5165L78.8275 33.2159C78.6318 33.3529 78.3578 33.1572 78.4361 32.9223L80.3738 26.9524C80.413 26.8546 80.3738 26.7371 80.276 26.6588L75.1869 22.9595C74.9912 22.8225 75.089 22.4897 75.3435 22.4897H81.6265C81.744 22.4897 81.8418 22.4114 81.881 22.3136L83.8187 16.3437C83.897 16.1088 84.2298 16.1088 84.3081 16.3437Z" fill="white"/>
<path d="M9.2248 17.2832L11.1626 23.2531C11.2017 23.3509 11.2996 23.4292 11.417 23.4292H17.7C17.9545 23.4292 18.0524 23.7424 17.8566 23.899L12.7676 27.5983C12.6697 27.6571 12.6306 27.7745 12.6697 27.8919L14.6075 33.8618C14.6858 34.0967 14.4117 34.2924 14.216 34.1554L9.12694 30.456C9.02907 30.3973 8.91163 30.3973 8.83334 30.456L3.74428 34.1554C3.54855 34.2924 3.27452 34.0967 3.35281 33.8618L5.29057 27.8919C5.32972 27.7941 5.29057 27.6766 5.1927 27.5983L0.103646 23.899C-0.0920868 23.762 0.00577966 23.4292 0.260233 23.4292H6.54326C6.6607 23.4292 6.75857 23.3509 6.79772 23.2531L8.73547 17.2832C8.81377 17.0483 9.14651 17.0483 9.2248 17.2832Z" fill="white"/>
<path d="M25.9599 5.44139L27.8977 11.4112C27.9368 11.5091 28.0347 11.5874 28.1521 11.5874H34.4352C34.6896 11.5874 34.7875 11.9006 34.5917 12.0572L29.5027 15.7565C29.4048 15.8152 29.3657 15.9327 29.4048 16.0501L31.3426 22.02C31.4209 22.2549 31.1468 22.4506 30.9511 22.3136L25.862 18.6142C25.7642 18.5555 25.6467 18.5555 25.5684 18.6142L20.4794 22.3136C20.2837 22.4506 20.0096 22.2549 20.0879 22.02L22.0257 16.0501C22.0648 15.9523 22.0257 15.8348 21.9278 15.7565L16.8388 12.0572C16.643 11.9202 16.7409 11.5874 16.9953 11.5874H23.2784C23.3958 11.5874 23.4937 11.5091 23.5328 11.4112L25.4706 5.44139C25.5489 5.20651 25.8816 5.20651 25.9599 5.44139Z" fill="white"/>
</svg>
