<svg width="61" height="60" viewBox="0 0 61 60" fill="none" xmlns="http://www.w3.org/2000/svg">
<path d="M30.0054 60C13.4593 60 0 46.5407 0 30.0054C0 21.4355 3.68052 13.2542 10.1025 7.55532C10.3724 7.31786 10.6854 7.16676 11.02 7.0912C11.1495 6.7782 11.3546 6.49757 11.646 6.2817C16.9347 2.16946 23.2812 0 30.0054 0C46.5515 0 60.0108 13.4593 60.0108 30.0054C60.0108 46.5515 46.5407 60 30.0054 60ZM13.2866 9.8327C13.1786 10.1025 12.9951 10.3508 12.7685 10.5559C7.20993 15.4884 4.0259 22.5688 4.0259 29.9946C4.0259 44.3173 15.6827 55.9741 30.0054 55.9741C44.3281 55.9741 55.9849 44.3173 55.9849 29.9946C55.9849 15.6719 44.3281 4.0259 30.0054 4.0259C24.1878 4.0259 18.6832 5.90394 14.0961 9.46573C13.8478 9.64922 13.578 9.76794 13.2866 9.8327Z" fill="#076AD0"/>
<path d="M32.9199 33.9233C32.65 33.9233 32.4018 33.8154 32.2075 33.6319L26.3791 27.8035C26.1632 27.5877 26.0553 27.2855 26.0877 26.9724C26.1201 26.6702 26.2928 26.3896 26.5626 26.2385L41.7488 16.8807C42.1481 16.6325 42.6554 16.6972 42.99 17.021C43.3246 17.3556 43.3786 17.8629 43.1303 18.2623L33.7725 33.4484C33.6106 33.7075 33.3408 33.8802 33.0386 33.9233C32.9954 33.9233 32.9522 33.9233 32.9199 33.9233ZM28.6997 27.2747L32.7364 31.3114L39.2123 20.8095L28.6997 27.2747Z" fill="#076AD0"/>
<path d="M17.7227 42.2773L27.0805 27.0803L32.9196 32.9195L17.7227 42.2773Z" fill="#076AD0"/>
<path d="M17.7225 43.2814C17.4634 43.2814 17.2044 43.1843 17.0101 42.99C16.6755 42.6554 16.6216 42.1481 16.8698 41.7488L26.2276 26.5626C26.3895 26.3036 26.6593 26.1309 26.9615 26.0877C27.2638 26.0553 27.5768 26.1632 27.7926 26.3791L33.621 32.2075C33.8369 32.4234 33.9448 32.7256 33.9124 33.0386C33.8801 33.3408 33.7074 33.6214 33.4375 33.7725L18.2513 43.1303C18.0894 43.2275 17.906 43.2814 17.7225 43.2814ZM27.2745 28.6997L20.7986 39.2016L31.3005 32.7256L27.2745 28.6997Z" fill="#076AD0"/>
<path d="M29.1858 8.90471C28.0741 8.90471 27.1782 8.00887 27.1782 6.89716V2.52587C27.1782 1.41415 28.0741 0.518311 29.1858 0.518311C30.2975 0.518311 31.1933 1.41415 31.1933 2.52587V6.89716C31.2041 8.00887 30.2975 8.90471 29.1858 8.90471Z" fill="#076AD0"/>
<path d="M57.475 32.8225H53.1037C51.992 32.8225 51.0962 31.9266 51.0962 30.8149C51.0962 29.7032 51.992 28.8074 53.1037 28.8074H57.475C58.5867 28.8074 59.4826 29.7032 59.4826 30.8149C59.4934 31.9266 58.5867 32.8225 57.475 32.8225Z" fill="#076AD0"/>
<path d="M30.8152 59.4928C29.7035 59.4928 28.8076 58.597 28.8076 57.4853V53.114C28.8076 52.0023 29.7035 51.1064 30.8152 51.1064C31.9269 51.1064 32.8227 52.0023 32.8227 53.114V57.4853C32.8227 58.5862 31.9269 59.4928 30.8152 59.4928Z" fill="#076AD0"/>
<path d="M6.8974 31.2036H2.52611C1.4144 31.2036 0.518555 30.3077 0.518555 29.196C0.518555 28.0843 1.4144 27.1885 2.52611 27.1885H6.8974C8.00911 27.1885 8.90495 28.0843 8.90495 29.196C8.90495 30.2969 8.00911 31.2036 6.8974 31.2036Z" fill="#076AD0"/>
</svg>
