<svg width="26" height="40" viewBox="0 0 26 40" fill="none" xmlns="http://www.w3.org/2000/svg">
<path d="M25.1372 22.2382C25.1372 15.7425 23.0057 1.29623 22.9381 0.687253C22.9042 0.450429 22.7689 0.247437 22.5659 0.112109C22.3629 -0.0232186 22.0923 -0.0232186 21.8893 0.0444453C21.6525 0.112109 16.4085 2.1082 11.0292 5.79588C7.84902 7.96113 5.34545 10.2955 3.51852 12.6976C1.18412 15.7763 0 18.9903 0 22.2382C0 28.328 4.36432 33.4366 10.1158 34.5531C10.3864 36.3123 10.7924 37.9701 11.266 39.4587C11.3675 39.797 11.672 40 12.0103 40C12.078 40 12.1795 40 12.2472 39.9662C12.6532 39.8308 12.89 39.391 12.7547 38.9512C12.3487 37.6994 12.0103 36.2785 11.7397 34.7899C12.0103 34.7899 12.281 34.8237 12.5517 34.8237C19.4872 34.8237 25.1372 29.1738 25.1372 22.2382ZM1.5901 22.2382C1.5901 15.6072 7.20621 10.3632 11.875 7.11533C14.9537 4.98391 18.0663 3.42764 20.0962 2.51418C18.4046 4.95008 15.0891 10.0249 13.1268 15.1335C12.9576 15.5395 13.1606 16.0131 13.5666 16.1485C13.6681 16.1823 13.7696 16.2161 13.8711 16.2161C14.1756 16.2161 14.4801 16.0131 14.6154 15.7086C16.6115 10.6 20.0962 5.32223 21.6525 3.12315C22.2614 7.52131 23.5471 17.3664 23.5471 22.2721C23.5471 28.328 18.6076 33.2336 12.5855 33.2336C6.52957 33.1998 1.5901 28.2941 1.5901 22.2382Z" fill="#1F1F1F"/>
</svg>
