<svg width="25" height="36" viewBox="0 0 25 36" fill="none" xmlns="http://www.w3.org/2000/svg">
<path d="M24.0243 16.2418C23.299 11.8894 20.9501 7.50257 17.3577 3.91017C15.976 2.52847 14.4907 1.31949 12.8672 0.317766C12.5908 0.145055 12.28 0.145055 12.0036 0.317766C10.4147 1.31949 8.89481 2.52847 7.51311 3.91017C3.92071 7.50257 1.57183 11.8549 0.846446 16.2418C0.121057 20.6977 1.19187 24.6356 3.85163 27.2953C5.12969 28.5734 6.71864 29.506 8.54938 30.0242C9.48203 30.3005 10.5183 30.4732 11.5546 30.5077V35.2055C11.5546 35.6546 11.9 36 12.349 36C12.7981 36 13.1435 35.6546 13.1435 35.2055V30.5077C14.1452 30.4387 15.1815 30.3005 16.2178 30.0587H16.2523C18.0831 29.5406 19.672 28.6079 20.9501 27.3299C23.6789 24.6356 24.7497 20.6977 24.0243 16.2418ZM19.8793 26.1554C18.8084 27.2262 17.4613 28.0207 15.9069 28.4698C15.0088 28.677 14.0762 28.8152 13.2126 28.8843V25.43L18.4285 20.1796C18.7394 19.8687 18.7394 19.3506 18.4285 19.0397C18.1176 18.7288 17.5995 18.7288 17.2886 19.0397L13.2126 23.1157V17.0708L15.6996 14.5837C16.0105 14.2729 16.0105 13.7547 15.6996 13.4438C15.3888 13.133 14.8706 13.133 14.5597 13.4438L13.2126 14.791V9.05697C13.2126 8.60792 12.8672 8.2625 12.4181 8.2625C11.9691 8.2625 11.6236 8.60792 11.6236 9.05697V14.791L10.2765 13.4438C9.96562 13.133 9.44748 13.133 9.1366 13.4438C8.82572 13.7547 8.82572 14.2729 9.1366 14.5837L11.6236 17.0708V23.1502L7.47857 19.0397C7.16769 18.7288 6.64955 18.7288 6.33867 19.0397C6.02779 19.3506 6.02779 19.8687 6.33867 20.1796L11.5891 25.43V28.9188C10.691 28.8843 9.82745 28.7461 9.03297 28.5043C7.47857 28.0552 6.13142 27.2608 5.02607 26.19C2.74627 23.9102 1.81363 20.4559 2.46993 16.5181C3.12624 12.4767 5.33695 8.43521 8.68755 5.08461C9.86199 3.91017 11.1055 2.8739 12.4527 2.01034C13.7998 2.90844 15.0433 3.94471 16.2178 5.08461C19.5684 8.43521 21.7791 12.4767 22.4354 16.5181C23.0572 20.4214 22.1591 23.8756 19.8793 26.1554Z" fill="#1F1F1F"/>
</svg>
