<svg width="41" height="50" viewBox="0 0 41 50" fill="none" xmlns="http://www.w3.org/2000/svg">
<path fill-rule="evenodd" clip-rule="evenodd" d="M38.2787 31.7705V32.8192V33.4053V38.1966V38.7929V42.0728V47.4604C38.2787 48.8587 37.1374 50 35.7391 50C34.3408 50 33.1995 48.8587 33.1995 47.4604V42.0728V38.7929V38.1966V36.1917V36.1711C33.1892 35.7084 32.8088 35.3383 32.3461 35.3383C31.8834 35.3383 31.503 35.7084 31.4927 36.1711V36.1917V38.1966V38.7929V42.0728V47.4604C31.4927 48.8587 30.3515 50 28.9532 50C27.5548 50 26.4136 48.8587 26.4136 47.4604V42.0728V38.7929V38.1966V33.4053V32.8192V31.7705L26.321 31.0714H25.4162C24.676 31.0714 24.0693 30.4647 24.0693 29.7245V28.2644V26.8044V17.0985V15.6282V14.1682C24.0693 14.1168 24.0693 14.0757 24.0796 14.0345V14.0037V13.9626L24.0899 13.8906L24.1002 13.8186L24.1105 13.7467L24.1207 13.6747L24.131 13.6027L24.1413 13.541L24.1516 13.4793L24.1722 13.4176L24.1927 13.356L24.2133 13.2943L24.2338 13.2326L24.2544 13.1709L24.275 13.1092L24.2955 13.0475L24.3161 12.9858L24.3469 12.9241L24.3778 12.8624L24.4086 12.8007L24.4395 12.739L24.4703 12.6774L24.5012 12.6157L24.532 12.554L24.5629 12.5026L24.5937 12.4512L24.6348 12.3998L24.676 12.3483L24.7171 12.2969L24.7582 12.2455L24.7993 12.1941L24.8405 12.1427L24.8816 12.0913L24.9227 12.0399L24.9638 11.9885L25.005 11.9371L25.0461 11.8857L25.0975 11.8445L25.1489 11.8034L25.2003 11.7623L25.2517 11.7212L25.3031 11.68L25.3546 11.6389L25.406 11.5978L25.4574 11.5567L25.5088 11.5155L25.5602 11.4744L25.6116 11.4333L25.663 11.4024L25.7144 11.3716L25.7761 11.3407L25.8378 11.3099L25.8995 11.279L25.9612 11.2482L26.0229 11.2174L26.0846 11.1865L26.1462 11.1557L26.2079 11.1351L26.2696 11.1145L26.3313 11.094L26.393 11.0734L26.4547 11.0528L26.5164 11.0323L26.5986 11.0117L26.6809 10.9912H26.6912H26.7015H26.7117H26.722H26.7323H26.7426H26.7529H26.7631H26.7734H26.7837H26.794H26.8043H26.8146H26.8248H26.8351H26.8454H26.8557H26.866H26.8762H26.8865H26.8968H26.9071H26.9174H26.9277H26.9379H26.9482H26.9585H26.9688H26.9791H26.9893H26.9996H27.0099H27.0202H27.0305H27.0408H27.051H27.0613H27.0716H27.0819H27.0922H27.1024H27.1127H27.123H27.1333H27.1436H27.1539H27.1641H27.1744H27.1847H27.195H27.2053H27.2155H27.2258H27.2361H27.2464H27.2567H27.267H27.2772H27.2875H27.2978H27.3081H27.3184H27.3286H27.3389L27.4212 10.9809H27.4315H27.5137H27.524H27.6062H27.6165H28.0689L28.1203 11.022L28.1717 11.0631L28.2232 11.1043L28.2746 11.1454L28.326 11.1865L28.3774 11.2276L28.4288 11.2688L28.4802 11.3099L28.5316 11.3407L28.583 11.3716L28.6344 11.4024L28.6858 11.4333L28.7372 11.4641L28.7886 11.495L28.8401 11.5258L28.8915 11.5567L28.9429 11.5875L28.9943 11.6183L29.056 11.6492L29.1177 11.68L29.1794 11.7109L29.241 11.7417L29.3027 11.7726L29.3644 11.8034L29.4261 11.8343L29.4878 11.8651L29.5495 11.8959L29.6112 11.9268L29.6729 11.9474L29.7346 11.9679L29.7963 11.9885L29.8579 12.009L29.9196 12.0296L29.9813 12.0502L30.043 12.0707L30.1047 12.0913L30.1664 12.1119L30.2281 12.1324L30.2898 12.153L30.3515 12.1736L30.4132 12.1941L30.4748 12.2147L30.5365 12.2352L30.5982 12.2558L30.6599 12.2764L30.7216 12.2969L30.7833 12.3175L30.845 12.3381L30.9067 12.3483L30.9684 12.3586L31.0301 12.3689L31.0918 12.3792L31.1534 12.3895L31.2151 12.3998L31.2768 12.41L31.3385 12.4203L31.4105 12.4306L31.4825 12.4409L31.5544 12.4512L31.6264 12.4614L31.6984 12.4717L31.7703 12.482L31.8423 12.4923L31.9143 12.5026L31.9863 12.5129H31.9965H32.0685H32.0788H32.1508H32.161H32.233H32.2433H32.3153H32.3256H32.3975H32.4078H32.4798H32.4901H32.562H32.5723H32.6443H32.6546H32.7265H32.7368H32.8088H32.8191H32.8911H32.9013H32.9733H32.9836L33.0556 12.5026L33.1275 12.4923L33.1995 12.482L33.2715 12.4717L33.3434 12.4614L33.4154 12.4512L33.4874 12.4409L33.5594 12.4306L33.6313 12.4203L33.693 12.41L33.7547 12.3998L33.8164 12.3895L33.8781 12.3792L33.9398 12.3689L34.0015 12.3586L34.0632 12.3483L34.1249 12.3381L34.1865 12.3175L34.2482 12.2969L34.3099 12.2764L34.3716 12.2558L34.4333 12.2352L34.495 12.2147L34.5567 12.1941L34.6184 12.1736L34.6801 12.153L34.7418 12.1324L34.8035 12.1119L34.8651 12.0913L34.9268 12.0707L34.9885 12.0502L35.0502 12.0296L35.1119 12.009L35.1736 11.9885L35.2353 11.9679L35.297 11.9474L35.3587 11.9268L35.4204 11.8959L35.482 11.8651L35.5437 11.8343L35.6054 11.8034L35.6671 11.7726L35.7288 11.7417L35.7905 11.7109L35.8522 11.68L35.9139 11.6492L35.9756 11.6183L36.027 11.5875L36.0784 11.5567L36.1298 11.5258L36.1812 11.495L36.2326 11.4641L36.284 11.4333L36.3354 11.4024L36.3868 11.3716L36.4382 11.3407L36.4897 11.3099L36.5411 11.2688L36.5925 11.2276L36.6439 11.1865L36.6953 11.1454L36.7467 11.1043L36.7981 11.0631L36.8495 11.022L36.9009 10.9809H37.3533H37.3636H37.4459H37.4561H37.5384H37.5487L37.6309 10.9912H37.6412H37.6515H37.6618H37.6721H37.6823H37.6926H37.7029H37.7132H37.7235H37.7337H37.744H37.7543H37.7646H37.7749H37.7852H37.7954H37.8057H37.816H37.8263H37.8366H37.8468H37.8571H37.8674H37.8777H37.888H37.8983H37.9085H37.9188H37.9291H37.9394H37.9497H37.9599H37.9702H37.9805H37.9908H38.0011H38.0113H38.0216H38.0319H38.0422H38.0525H38.0628H38.073H38.0833H38.0936H38.1039H38.1142H38.1244H38.1347H38.145H38.1553H38.1656H38.1759H38.1861H38.1964H38.2067H38.217H38.2273H38.2375H38.2478H38.2581H38.2684H38.2787H38.289L38.3712 11.0117L38.4535 11.0323L38.5152 11.0528L38.5768 11.0734L38.6385 11.094L38.7002 11.1145L38.7619 11.1351L38.8236 11.1557L38.8853 11.1865L38.947 11.2174L39.0087 11.2482L39.0704 11.279L39.1321 11.3099L39.1937 11.3407L39.2554 11.3716L39.3068 11.4024L39.3583 11.4333L39.4097 11.4744L39.4611 11.5155L39.5125 11.5567L39.5639 11.5978L39.6153 11.6389L39.6667 11.68L39.7181 11.7212L39.7695 11.7623L39.8209 11.8034L39.8723 11.8445L39.9237 11.8857L39.9649 11.9371L40.006 11.9885L40.0471 12.0399L40.0883 12.0913L40.1294 12.1427L40.1705 12.1941L40.2116 12.2455L40.2528 12.2969L40.2939 12.3483L40.335 12.3998L40.3761 12.4512L40.407 12.5026L40.4378 12.554L40.4687 12.6157L40.4995 12.6774L40.5304 12.739L40.5612 12.8007L40.5921 12.8624L40.6229 12.9241L40.6538 12.9858L40.6743 13.0475L40.6949 13.1092L40.7154 13.1709L40.736 13.2326L40.7566 13.2943L40.7771 13.356L40.7977 13.4176L40.8183 13.4793L40.8285 13.541L40.8388 13.6027L40.8491 13.6747L40.8594 13.7467L40.8697 13.8186L40.8799 13.8906L40.8902 13.9626V14.0037V14.0345C40.8902 14.0757 40.9005 14.1271 40.9005 14.1682V15.6282V17.0882V26.7942V28.2542V29.7142C40.9005 30.4545 40.2939 31.0611 39.5536 31.0611H38.6488L38.2787 31.7705ZM32.3564 0C29.4672 0 27.123 2.34423 27.123 5.2334C27.123 8.12256 29.4672 10.4668 32.3564 10.4668C35.2456 10.4668 37.5898 8.12256 37.5898 5.2334C37.5898 2.34423 35.2456 0 32.3564 0Z" fill="black"/>
<path fill-rule="evenodd" clip-rule="evenodd" d="M14.2093 31.7705V32.8192V33.4053V38.1966V38.7929V42.0728V47.4604C14.2093 48.8587 13.0681 50 11.6698 50C10.2714 50 9.13017 48.8587 9.13017 47.4604V42.0728V38.7929V38.1966V36.1917V36.1711C9.11988 35.7084 8.73946 35.3383 8.27678 35.3383C7.81411 35.3383 7.43368 35.7084 7.4234 36.1711V36.1917V38.1966V38.7929V42.0728V47.4604C7.4234 48.8587 6.28213 50 4.88382 50C3.4855 50 2.34423 48.8587 2.34423 47.4604V42.0728V38.7929V38.1966V33.4053V32.8192V31.7705L2.2517 31.0714H1.34691C0.606622 31.0714 0 30.4647 0 29.7245V28.2644V26.8044V17.0985V15.6282V14.1682C0 14.1168 0 14.0757 0.0102817 14.0345V14.0037V13.9626L0.0205634 13.8906L0.0308452 13.8186L0.0411269 13.7467L0.0514086 13.6747L0.0616903 13.6027L0.071972 13.541L0.0822538 13.4793L0.102817 13.4176L0.123381 13.356L0.143944 13.2943L0.164508 13.2326L0.185071 13.1709L0.205634 13.1092L0.226198 13.0475L0.246761 12.9858L0.277606 12.9241L0.308452 12.8624L0.339297 12.8007L0.370142 12.739L0.400987 12.6774L0.431832 12.6157L0.462677 12.554L0.493522 12.5026L0.524368 12.4512L0.565495 12.3998L0.627185 12.3381L0.668312 12.2867L0.709439 12.2352L0.750565 12.1838L0.791692 12.1324L0.832819 12.081L0.873946 12.0296L0.915073 11.9782L0.9562 11.9268L0.997327 11.8754L1.04874 11.8343L1.10014 11.7931L1.15155 11.752L1.20296 11.7109L1.25437 11.6698L1.30578 11.6286L1.35719 11.5875L1.4086 11.5464L1.46 11.5052L1.51141 11.4641L1.56282 11.423L1.61423 11.3921L1.66564 11.3613L1.72733 11.3305L1.78902 11.2996L1.85071 11.2688L1.9124 11.2379L1.96381 11.2071L2.0255 11.1762L2.08719 11.1454L2.14888 11.1248L2.21057 11.1043L2.27226 11.0837L2.33395 11.0631L2.39564 11.0426L2.45733 11.022L2.53958 11.0014L2.62184 10.9809H2.63212H2.6424H2.65268H2.66297H2.67325H2.68353H2.69381H2.70409H2.71437H2.72466H2.73494H2.74522H2.7555H2.76578H2.77606H2.78635H2.79663H2.80691H2.81719H2.82747H2.83775H2.84804H2.85832H2.8686H2.87888H2.88916H2.89944H2.90973H2.92001H2.93029H2.94057H2.95085H2.96114H2.97142H2.9817H2.99198H3.00226H3.01254H3.02283H3.03311H3.04339H3.05367H3.06395H3.07423H3.08452H3.0948H3.10508H3.11536H3.12564H3.13592H3.14621H3.15649H3.16677H3.17705H3.18733H3.19761H3.2079H3.21818H3.22846H3.23874H3.24902H3.25931H3.26959H3.27987L3.36212 10.9706H3.3724H3.45466H3.46494H3.54719H3.40325H3.85564L3.90705 11.0117L3.95846 11.0528L4.00987 11.094L4.06128 11.1351L4.11269 11.1762L4.1641 11.2174L4.21551 11.2585L4.26691 11.2996L4.31832 11.3305L4.36973 11.3613L4.42114 11.3921L4.47255 11.423L4.52396 11.4538L4.57537 11.4847L4.62677 11.5155L4.67818 11.5464L4.72959 11.5772L4.781 11.6081L4.84269 11.6389L4.90438 11.6698L4.96607 11.7006L5.02776 11.7314L5.08945 11.7623L5.15114 11.7931L5.21283 11.824L5.27452 11.8548L5.33621 11.8857L5.3979 11.9165L5.45959 11.9371L5.52128 11.9576L5.58297 11.9782L5.64466 11.9988L5.70635 12.0193L5.76804 12.0399L5.82973 12.0605L5.89143 12.081L5.95311 12.1016L6.01481 12.1221L6.0765 12.1427L6.13819 12.1633L6.19988 12.1838L6.28213 12.1324L6.34382 12.153L6.40551 12.1736L6.4672 12.1941L6.52889 12.2147L6.59058 12.2352L6.65227 12.2558L6.71396 12.2661L6.77565 12.2764L6.83734 12.2867L6.89903 12.2969L6.96072 12.3072L7.02241 12.3175L7.0841 12.3278L7.14579 12.3381L7.21777 12.3483L7.28974 12.3586L7.36171 12.3689L7.43368 12.3792L7.50566 12.3895L7.57763 12.3998L7.6496 12.41L7.72157 12.4203L7.79354 12.4306H7.82439H7.89636H7.90664H7.97861H7.9889H8.06087H8.07115H8.14312H8.13284H8.20481H8.21509H8.28707H8.29735H8.36932H8.3796H8.45157H8.44129H8.51326H8.52355H8.59552H8.6058H8.67777H8.68805H8.76002H8.74974L8.82171 12.4203L8.89369 12.41L8.96566 12.3998L9.03763 12.3895L9.1096 12.3792L9.18157 12.3689L9.25355 12.3586L9.32552 12.3483L9.39749 12.3381L9.45918 12.3278L9.52087 12.3175L9.58256 12.3072L9.64425 12.2969L9.70594 12.2867L9.76763 12.2764L9.82932 12.2661L9.89101 12.2558L9.9527 12.2352L10.0144 12.2147L10.0761 12.1941L10.1378 12.1736L10.1995 12.153L10.2612 12.1324L10.3228 12.1119L10.3845 12.0913L10.4462 12.0707L10.5079 12.0502L10.5696 12.0296L10.6313 12.009L10.693 11.9885L10.7547 11.9679L10.8164 11.9474L10.8781 11.9268L10.9397 11.9062L11.0014 11.8857L11.0631 11.8651L11.1248 11.8445L11.1865 11.8137L11.2482 11.7829L11.3099 11.752L11.3716 11.7212L11.4333 11.6903L11.495 11.6595L11.5567 11.6286L11.6183 11.5978L11.68 11.5669L11.7417 11.5361L11.7931 11.5052L11.8445 11.4744L11.8959 11.4436L11.9474 11.4127L11.9988 11.3819L12.0502 11.351L12.1016 11.3202L12.153 11.2893L12.2044 11.2585L12.2558 11.2276L12.3072 11.1865L12.3586 11.1454L12.41 11.1043L12.4614 11.0631L12.5129 11.022L12.5643 10.9809L12.6157 10.9397L12.6671 10.8986H13.1195H13.1298H13.212H13.2223H13.3045H13.3148L13.3971 10.9089H13.4074H13.4176H13.4279H13.4382H13.4485H13.4588H13.4691H13.4793H13.4896H13.4999H13.5102H13.5205H13.5307H13.541H13.5513H13.5616H13.5719H13.5822H13.5924H13.6027H13.613H13.6233H13.6336H13.6438H13.6541H13.6644H13.6747H13.685H13.6953H13.7055H13.7158H13.7261H13.7364H13.7467H13.7569H13.7672H13.7775H13.7878H13.7981H13.8083H13.8186H13.8289H13.8392H13.8495H13.8598H13.87H13.8803H13.8906H13.9009H13.9112H13.9214H13.9317H13.942H13.9523H13.9626H13.9729H13.9831H13.9934H14.0037H14.014H14.0243H14.0345H14.0448H14.0551L14.1374 10.9295L14.2196 10.95L14.2813 10.9706L14.343 10.9912L14.4047 11.0117L14.4664 11.0323L14.5281 11.0528L14.5898 11.0734L14.6515 11.1043L14.7131 11.1351L14.7748 11.1659L14.8365 11.1968L14.8982 11.2276L14.9599 11.2585L15.0216 11.2893L15.073 11.3202L15.1244 11.351L15.1758 11.3921L15.2272 11.4333L15.2786 11.4744L15.33 11.5155L15.3815 11.5567L15.4329 11.5978L15.4843 11.6389L15.5357 11.68L15.5871 11.7212L15.6385 11.7623L15.6899 11.8034L15.731 11.8548L15.7722 11.9062L15.8133 11.9576L15.8544 12.009L15.8955 12.0605L15.9367 12.1119L15.9778 12.1633L16.0189 12.2147L16.06 12.2661L16.1012 12.3175L16.1423 12.3689L16.1731 12.4203L16.204 12.4717L16.2348 12.5334L16.2657 12.5951L16.2965 12.6568L16.3274 12.7185L16.3582 12.7802L16.3891 12.8419L16.4199 12.9036L16.4405 12.9652L16.461 13.0269L16.4816 13.0886L16.5022 13.1503L16.5227 13.212L16.5433 13.2737L16.5639 13.3354L16.5844 13.3971L16.5947 13.4588L16.605 13.5205L16.6153 13.5924L16.6255 13.6644L16.6358 13.7364L16.6461 13.8083L16.6564 13.8803V13.9214V13.9523C16.6564 13.9934 16.6667 14.0448 16.6667 14.086V15.546V17.006V26.7119V28.1719V29.6319C16.6667 30.3722 16.06 30.9788 15.3198 30.9788H14.3019L14.2093 31.7705ZM8.27678 0C5.38762 0 3.04339 2.34423 3.04339 5.2334C3.04339 8.12256 5.38762 10.4668 8.27678 10.4668C11.1659 10.4668 13.5102 8.12256 13.5102 5.2334C13.5102 2.34423 11.1659 0 8.27678 0Z" fill="black"/>
</svg>
