<svg width="49" height="40" viewBox="0 0 49 40" fill="none" xmlns="http://www.w3.org/2000/svg">
<path d="M41.761 0H6.67092C2.98798 0 0 2.98798 0 6.67092V26.9703C0 30.6533 2.98798 33.6412 6.67092 33.6412H14.8456C16.2042 33.6412 17.5038 34.1791 18.4658 35.1411L22.6945 39.3698C23.5347 40.2101 24.8972 40.2101 25.7413 39.3698L29.9661 35.1411C30.9242 34.1831 32.2277 33.6412 33.5863 33.6412H41.761C45.4439 33.6412 48.4319 30.6533 48.4319 26.9703V6.67092C48.4319 2.98798 45.4439 0 41.761 0Z" fill="#F39F00"/>
<path d="M18.7032 26.6668H16.3535C15.4239 26.6668 14.6665 25.9093 14.6665 24.9755V16.9581C14.6665 16.0242 15.4239 15.2711 16.3535 15.2711H18.7032C19.637 15.2711 20.3901 16.0285 20.3901 16.9581V24.9755C20.3901 25.9093 19.637 26.6668 18.7032 26.6668Z" fill="white"/>
<path d="M34.945 18.2577C35.0268 17.4357 34.4587 16.7299 33.6927 16.5879C34.5706 16.3598 35.1731 15.4389 34.8718 14.4448C34.661 13.7476 33.9982 13.2872 33.2709 13.2872H33.2408H27.9045L28.9244 9.71956C29.0966 9.10847 29.1869 8.48016 29.1869 7.84755V7.35695C29.1869 6.22083 28.2488 5.29988 27.104 5.33431C26.4671 5.35152 25.9679 5.89376 25.9679 6.53068V7.80882C25.9679 8.43282 25.7657 9.04392 25.387 9.54312L22.3358 13.5152C21.8667 14.1263 21.6128 14.8751 21.6128 15.6455V24.1879C21.6128 24.7344 22.0561 25.1777 22.6026 25.1777L32.8492 25.1648C33.5421 25.1648 34.1015 24.6053 34.1015 23.9125V23.7619C34.1015 23.2067 33.74 22.7333 33.2365 22.5698C33.9853 22.5009 34.5706 21.8683 34.5706 21.1023C34.5706 20.3535 34.0111 19.7381 33.2882 19.6434H33.3613C34.1618 19.6477 34.8675 19.0581 34.945 18.2577Z" fill="white"/>
</svg>
