<svg width="76" height="100" viewBox="0 0 76 100" fill="none" xmlns="http://www.w3.org/2000/svg">
<path d="M42.0239 81.3348L51.0581 86.5708L73.6842 47.3684L75.5019 48.4265L52.3603 88.497L51.8448 89.3923L50.9224 88.8768L40.9658 83.1253L42.0239 81.3348Z" fill="#076AD0"/>
<path fill-rule="evenodd" clip-rule="evenodd" d="M32.5011 0C27.7263 0.244167 23.9282 4.2051 23.9282 9.03418C23.9282 10.3635 24.2266 11.6115 24.7149 12.7509H16.4946V23.3858H49.4843V12.7781H41.2369C41.7524 11.6386 42.0237 10.3907 42.0237 9.06131C42.0237 4.23223 38.2255 0.271297 33.4507 0.0271297C33.1523 0 32.8267 0 32.5011 0ZM32.9895 4.72056L33.7491 7.05372H36.2179L34.2374 8.49159L34.9971 10.8247L33.0166 9.38687L31.0361 10.8247L31.7958 8.49159L29.8153 7.05372H32.2841L32.9895 4.72056Z" fill="#076AD0"/>
<path fill-rule="evenodd" clip-rule="evenodd" d="M51.0309 24.9593H14.9213V19.1536H0V100H65.9522V68.0412L52.3874 91.5355L38.8226 83.6951L41.3999 79.1915L50.4612 84.4276L65.9251 57.6506V19.1536H51.0038V24.9593H51.0309ZM54.2594 38.28H11.6929V36.191H54.2594V38.28ZM11.6929 73.3858V71.2968H54.2594V73.3858H11.6929ZM11.6929 59.6039H54.2594V61.6929H11.6929V59.6039ZM11.6929 47.911H54.2594V50H11.6929V47.911ZM11.6929 83.0168H27.5909V85.1058H11.6929V83.0168Z" fill="#076AD0"/>
</svg>
