<svg width="38" height="40" viewBox="0 0 38 40" fill="none" xmlns="http://www.w3.org/2000/svg">
<path d="M18.9018 31.6435C18.4581 31.6435 18.0306 31.4418 17.7483 31.103C17.3289 30.6029 7.56885 18.7215 7.56885 11.341C7.56885 5.08974 12.6505 0 18.9018 0C25.153 0 30.2428 5.08974 30.2428 11.341C30.2428 18.7215 20.4747 30.5949 20.0633 31.103C19.7729 31.4418 19.3535 31.6435 18.9018 31.6435ZM18.9018 3.00867C14.3041 3.00867 10.5695 6.7433 10.5695 11.341C10.5695 15.9226 15.8205 23.7225 18.9018 27.7233C21.983 23.7145 27.2341 15.9145 27.2341 11.341C27.2341 6.7433 23.4995 3.00867 18.9018 3.00867Z" fill="#1F1F1F"/>
<path d="M18.9015 9.34058C20.0307 9.34058 20.9503 10.2601 20.9503 11.3894C20.9503 12.5186 20.0307 13.4382 18.9015 13.4382C17.7722 13.4382 16.8527 12.5186 16.8527 11.3894C16.8607 10.2601 17.7722 9.34058 18.9015 9.34058ZM18.9015 6.33191C16.1106 6.33191 13.8521 8.59043 13.8521 11.3813C13.8521 14.1722 16.1106 16.4307 18.9015 16.4307C21.6923 16.4307 23.9509 14.1722 23.9509 11.3813C23.9589 8.5985 21.6923 6.33191 18.9015 6.33191Z" fill="#1F1F1F"/>
<path d="M18.9015 40C18.6434 40 18.3934 39.9355 18.1595 39.8064L10.4482 35.4427L2.05138 38.7659C1.52708 38.9756 0.922118 38.8708 0.502679 38.4917C0.0751731 38.1126 -0.0942159 37.5318 0.0509747 36.9833L4.32603 20.7703C4.45509 20.2864 4.81 19.8992 5.27783 19.7379L11.0451 17.7133C11.8275 17.439 12.6826 17.8504 12.9568 18.6328C13.2311 19.4152 12.8197 20.2702 12.0373 20.5445L7.02819 22.3029L3.70494 34.878L10.0207 32.3856C10.4402 32.2162 10.9161 32.2485 11.3113 32.4743L18.9015 36.7655L26.4918 32.4743C26.887 32.2485 27.3629 32.2162 27.7824 32.3856L34.0982 34.878L30.783 22.3029L25.7739 20.5445C24.9915 20.2702 24.5801 19.4152 24.8544 18.6328C25.1286 17.8504 25.9836 17.439 26.7741 17.7133L32.5414 19.7379C33.0092 19.8992 33.3722 20.2944 33.4932 20.7703L37.7683 36.9833C37.9134 37.5318 37.736 38.1126 37.3166 38.4917C36.889 38.8708 36.2922 38.9756 35.7679 38.7659L27.3629 35.4507L19.6517 39.8145C19.4178 39.9355 19.1597 40 18.9015 40Z" fill="#1F1F1F"/>
</svg>
