<svg width="43" height="100" viewBox="0 0 43 100" fill="none" xmlns="http://www.w3.org/2000/svg">
<path d="M10.5462 96.2256C10.5462 98.3126 8.85877 100 6.77174 100C4.6847 100 2.99731 98.3126 2.99731 96.2256C2.99731 94.1386 4.6847 92.4512 6.77174 92.4512C8.85877 92.4512 10.5462 94.1608 10.5462 96.2256Z" fill="white"/>
<path d="M39.6311 96.2256C39.6311 98.3126 37.9437 100 35.8567 100C33.7697 100 32.0823 98.3126 32.0823 96.2256C32.0823 94.1386 33.7697 92.4512 35.8567 92.4512C37.9437 92.4512 39.6311 94.1608 39.6311 96.2256Z" fill="white"/>
<path d="M12.3228 22.6021H10.5022V24.4671H12.3228V22.6021Z" fill="white"/>
<path d="M32.1494 4.17407V21.6918H30.3288V4.90675C30.3288 3.30817 29.0188 1.99822 27.4202 1.99822H15.2089C13.6103 1.99822 12.3003 3.28597 12.3003 4.90675V21.714H10.4797V4.17407C10.5019 1.86501 12.3669 0 14.676 0H27.9531C30.2621 0 32.1494 1.86501 32.1494 4.17407Z" fill="white"/>
<path d="M32.1495 22.6021H30.3289V24.4671H32.1495V22.6021Z" fill="white"/>
<path d="M36.7007 22.6688V59.1474C36.7007 62.2114 34.1918 64.7203 31.1279 64.7203H11.5231C8.43695 64.7203 5.95027 62.2114 5.95027 59.1474V22.6688C2.57549 23.2016 0 26.1324 0 29.6403V83.5702C0 87.4556 3.15275 90.6084 7.03819 90.6084H35.5906C39.476 90.6084 42.6288 87.4556 42.6288 83.5702V29.6403C42.651 26.1324 40.0533 23.2016 36.7007 22.6688ZM26.8428 85.413H15.8082C14.6758 85.413 13.7433 84.5027 13.7433 83.3482C13.7433 82.7709 13.9654 82.2602 14.3428 81.8828C14.7202 81.5053 15.2309 81.2833 15.8082 81.2833H26.8428C27.9751 81.2833 28.9076 82.2158 28.9076 83.3482C28.9076 84.4805 27.9751 85.413 26.8428 85.413Z" fill="white"/>
<path d="M6.81616 22.6021V59.1696C6.81616 61.7673 8.9254 63.8765 11.5231 63.8765H31.1279C33.7256 63.8765 35.8126 61.7673 35.8126 59.1696V22.6021H6.81616ZM26.8428 59.3916H15.8082C14.6758 59.3916 13.7433 58.4591 13.7433 57.3268C13.7433 56.7495 13.9654 56.2389 14.3428 55.8836C14.7202 55.5062 15.2309 55.2842 15.8082 55.2842H26.8428C27.9751 55.2842 28.9076 56.1945 28.9076 57.349C28.9076 58.5035 27.9751 59.3916 26.8428 59.3916Z" fill="white"/>
</svg>
