<svg width="76" height="50" viewBox="0 0 76 50" fill="none" xmlns="http://www.w3.org/2000/svg">
<g clip-path="url(#clip0_136_682)">
<path d="M54.0173 49.9998H21.8805C21.5386 49.9998 21.2822 49.7434 21.2822 49.4015V9.31606C21.2822 8.97418 21.5386 8.71777 21.8805 8.71777H54.0173C54.3592 8.71777 54.6156 8.97418 54.6156 9.31606V49.3161C54.701 49.6579 54.3592 49.9998 54.0173 49.9998ZM22.5643 48.7178H53.419V9.91436H22.5643V48.7178Z" fill="black"/>
<path d="M48.8033 9.91453H27.1793C26.8375 9.91453 26.5811 9.65812 26.5811 9.31624V0.598291C26.5811 0.25641 26.8375 0 27.1793 0H48.7178C49.0597 0 49.3161 0.25641 49.3161 0.598291V9.31624C49.4016 9.65812 49.1452 9.91453 48.8033 9.91453ZM27.8631 8.71795H48.205V1.28205H27.8631V8.71795Z" fill="black"/>
<path d="M45.4701 50H30.4274C30.0855 50 29.8291 49.7436 29.8291 49.4017V32.4787C29.8291 32.1368 30.0855 31.8804 30.4274 31.8804H45.4701C45.812 31.8804 46.0684 32.1368 46.0684 32.4787V49.3163C46.1539 49.6581 45.812 50 45.4701 50ZM31.1112 48.718H44.9573V33.1624H31.1112V48.718Z" fill="black"/>
<path d="M46.154 16.0682H29.9147C29.5728 16.0682 29.3164 15.8118 29.3164 15.4699C29.3164 15.128 29.5728 14.8716 29.9147 14.8716H46.154C46.4959 14.8716 46.7523 15.128 46.7523 15.4699C46.7523 15.7263 46.4959 16.0682 46.154 16.0682Z" fill="black"/>
<path d="M46.154 21.6238H29.9147C29.5728 21.6238 29.3164 21.3674 29.3164 21.0255C29.3164 20.6837 29.5728 20.4272 29.9147 20.4272H46.154C46.4959 20.4272 46.7523 20.6837 46.7523 21.0255C46.7523 21.3674 46.4959 21.6238 46.154 21.6238Z" fill="black"/>
<path d="M46.154 27.1795H29.9147C29.5728 27.1795 29.3164 26.9231 29.3164 26.5812C29.3164 26.2393 29.5728 25.9829 29.9147 25.9829H46.154C46.4959 25.9829 46.7523 26.2393 46.7523 26.5812C46.7523 26.9231 46.4959 27.1795 46.154 27.1795Z" fill="black"/>
<path d="M75.3848 50.0001H54.0172C53.6754 50.0001 53.4189 49.7436 53.4189 49.4018V24.359C53.4189 24.0172 53.6754 23.7607 54.0172 23.7607H75.2993C75.6412 23.7607 75.8976 24.0172 75.8976 24.359V49.3163C75.9831 49.6582 75.7266 50.0001 75.3848 50.0001ZM54.701 48.718H74.7865V24.9573H54.701V48.718Z" fill="black"/>
<path d="M62.2223 34.3589H58.1198C57.7779 34.3589 57.5215 34.1025 57.5215 33.7606V29.0597C57.5215 28.7178 57.7779 28.4614 58.1198 28.4614H62.2223C62.5642 28.4614 62.8206 28.7178 62.8206 29.0597V33.7606C62.8206 34.017 62.5642 34.3589 62.2223 34.3589ZM58.7181 33.0768H61.624V29.5725H58.7181V33.0768Z" fill="black"/>
<path d="M71.2819 34.3589H67.1793C66.8375 34.3589 66.5811 34.1025 66.5811 33.7606V29.0597C66.5811 28.7178 66.8375 28.4614 67.1793 28.4614H71.2819C71.6238 28.4614 71.8802 28.7178 71.8802 29.0597V33.7606C71.8802 34.017 71.6238 34.3589 71.2819 34.3589ZM67.7776 33.0768H70.6836V29.5725H67.7776V33.0768Z" fill="black"/>
<path d="M62.2223 44.188H58.1198C57.7779 44.188 57.5215 43.9316 57.5215 43.5897V38.8888C57.5215 38.5469 57.7779 38.2905 58.1198 38.2905H62.2223C62.5642 38.2905 62.8206 38.5469 62.8206 38.8888V43.5897C62.8206 43.8461 62.5642 44.188 62.2223 44.188ZM58.7181 42.9059H61.624V39.4016H58.7181V42.9059Z" fill="black"/>
<path d="M71.2819 44.188H67.1793C66.8375 44.188 66.5811 43.9316 66.5811 43.5897V38.8888C66.5811 38.5469 66.8375 38.2905 67.1793 38.2905H71.2819C71.6238 38.2905 71.8802 38.5469 71.8802 38.8888V43.5897C71.8802 43.8461 71.6238 44.188 71.2819 44.188ZM67.7776 42.9059H70.6836V39.4016H67.7776V42.9059Z" fill="black"/>
<path d="M21.8803 50.0001H0.598291C0.25641 50.0001 0 49.7436 0 49.4018V24.359C0 24.0172 0.25641 23.7607 0.598291 23.7607H21.8803C22.2222 23.7607 22.4786 24.0172 22.4786 24.359V49.3163C22.5641 49.6582 22.2222 50.0001 21.8803 50.0001ZM1.28205 48.718H21.3675V24.9573H1.28205V48.718Z" fill="black"/>
<path d="M8.80339 34.3589H4.70083C4.35895 34.3589 4.10254 34.1025 4.10254 33.7606V29.0597C4.10254 28.7178 4.35895 28.4614 4.70083 28.4614H8.80339C9.14527 28.4614 9.40168 28.7178 9.40168 29.0597V33.7606C9.40168 34.017 9.14527 34.3589 8.80339 34.3589ZM5.29912 33.0768H8.2051V29.5725H5.29912V33.0768Z" fill="black"/>
<path d="M17.863 34.3589H13.7604C13.4185 34.3589 13.1621 34.1025 13.1621 33.7606V29.0597C13.1621 28.7178 13.4185 28.4614 13.7604 28.4614H17.863C18.2048 28.4614 18.4613 28.7178 18.4613 29.0597V33.7606C18.4613 34.017 18.2048 34.3589 17.863 34.3589ZM14.3587 33.0768H17.2647V29.5725H14.3587V33.0768Z" fill="black"/>
<path d="M8.80339 44.188H4.70083C4.35895 44.188 4.10254 43.9316 4.10254 43.5897V38.8888C4.10254 38.5469 4.35895 38.2905 4.70083 38.2905H8.80339C9.14527 38.2905 9.40168 38.5469 9.40168 38.8888V43.5897C9.40168 43.8461 9.14527 44.188 8.80339 44.188ZM5.29912 42.9059H8.2051V39.4016H5.29912V42.9059Z" fill="black"/>
<path d="M17.863 44.188H13.7604C13.4185 44.188 13.1621 43.9316 13.1621 43.5897V38.8888C13.1621 38.5469 13.4185 38.2905 13.7604 38.2905H17.863C18.2048 38.2905 18.4613 38.5469 18.4613 38.8888V43.5897C18.4613 43.8461 18.2048 44.188 17.863 44.188ZM14.3587 42.9059H17.2647V39.4016H14.3587V42.9059Z" fill="black"/>
</g>
<defs>
<clipPath id="clip0_136_682">
<rect width="75.9829" height="50" fill="white"/>
</clipPath>
</defs>
</svg>
