<svg width="100" height="83" viewBox="0 0 100 83" fill="none" xmlns="http://www.w3.org/2000/svg">
<path d="M86.2262 0H13.7738C6.16944 0 0 6.16944 0 13.7738V55.6871C0 63.2915 6.16944 69.4609 13.7738 69.4609H30.6526C33.4576 69.4609 36.1411 70.5715 38.1273 72.5578L46.8585 81.289C48.5934 83.0239 51.4066 83.0239 53.1496 81.289L61.8727 72.5578C63.8508 70.5797 66.5424 69.4609 69.3474 69.4609H86.2262C93.8306 69.4609 100 63.2915 100 55.6871V13.7738C100 6.16944 93.8306 0 86.2262 0Z" fill="#076AD0"/>
<path d="M70.8334 31.4577C70.8334 32.6498 70.6452 33.834 70.2452 35.0496C68.4023 43.3076 52.7175 53.8243 50.004 55.5888C47.2984 53.8243 31.59 43.2998 29.7314 34.979C29.355 33.834 29.1667 32.6419 29.1667 31.4577C29.1667 27.2856 31.4332 23.4428 35.0878 21.4195C36.7817 20.4941 38.6874 20 40.6088 20C44.0281 20 47.2435 21.5136 49.4394 24.1486L50.0118 24.8388L50.5843 24.1408C52.7645 21.5136 55.9721 20 59.3914 20C61.352 20 63.2028 20.4784 64.9124 21.4195C68.567 23.4507 70.8334 27.2934 70.8334 31.4577Z" fill="white"/>
</svg>
