<svg width="120" height="68" viewBox="0 0 120 68" fill="none" xmlns="http://www.w3.org/2000/svg">
<path d="M80.8158 25.099C77.0246 21.3077 71.7696 18.9562 65.9628 18.9562C60.156 18.9562 54.925 21.3077 51.1098 25.099C47.3185 28.8902 44.967 34.1452 44.967 39.952C44.967 45.7589 47.3185 50.9898 51.1098 54.805C54.901 58.5963 60.156 60.9478 65.9628 60.9478C71.7696 60.9478 77.0006 58.5963 80.8158 54.805C84.6071 51.0138 86.9586 45.7589 86.9586 39.952C86.9586 34.1452 84.6071 28.8902 80.8158 25.099ZM78.2484 52.2136C75.105 55.3569 70.7618 57.3005 65.9628 57.3005C61.1638 57.3005 56.8206 55.3569 53.6773 52.2136C50.5339 49.0702 48.5903 44.7271 48.5903 39.928C48.5903 35.129 50.5339 30.7858 53.6773 27.6425C56.8206 24.4991 61.1638 22.5555 65.9628 22.5555C70.7618 22.5555 75.105 24.4991 78.2484 27.6425C81.3917 30.7858 83.3353 35.129 83.3353 39.928C83.3353 44.751 81.3917 49.0942 78.2484 52.2136ZM80.8158 25.099C77.0246 21.3077 71.7696 18.9562 65.9628 18.9562C60.156 18.9562 54.925 21.3077 51.1098 25.099C47.3185 28.8902 44.967 34.1452 44.967 39.952C44.967 45.7589 47.3185 50.9898 51.1098 54.805C54.901 58.5963 60.156 60.9478 65.9628 60.9478C71.7696 60.9478 77.0006 58.5963 80.8158 54.805C84.6071 51.0138 86.9586 45.7589 86.9586 39.952C86.9586 34.1452 84.6071 28.8902 80.8158 25.099ZM78.2484 52.2136C75.105 55.3569 70.7618 57.3005 65.9628 57.3005C61.1638 57.3005 56.8206 55.3569 53.6773 52.2136C50.5339 49.0702 48.5903 44.7271 48.5903 39.928C48.5903 35.129 50.5339 30.7858 53.6773 27.6425C56.8206 24.4991 61.1638 22.5555 65.9628 22.5555C70.7618 22.5555 75.105 24.4991 78.2484 27.6425C81.3917 30.7858 83.3353 35.129 83.3353 39.928C83.3353 44.751 81.3917 49.0942 78.2484 52.2136ZM80.8158 25.099C77.0246 21.3077 71.7696 18.9562 65.9628 18.9562C60.156 18.9562 54.925 21.3077 51.1098 25.099C47.3185 28.8902 44.967 34.1452 44.967 39.952C44.967 45.7589 47.3185 50.9898 51.1098 54.805C54.901 58.5963 60.156 60.9478 65.9628 60.9478C71.7696 60.9478 77.0006 58.5963 80.8158 54.805C84.6071 51.0138 86.9586 45.7589 86.9586 39.952C86.9586 34.1452 84.6071 28.8902 80.8158 25.099ZM78.2484 52.2136C75.105 55.3569 70.7618 57.3005 65.9628 57.3005C61.1638 57.3005 56.8206 55.3569 53.6773 52.2136C50.5339 49.0702 48.5903 44.7271 48.5903 39.928C48.5903 35.129 50.5339 30.7858 53.6773 27.6425C56.8206 24.4991 61.1638 22.5555 65.9628 22.5555C70.7618 22.5555 75.105 24.4991 78.2484 27.6425C81.3917 30.7858 83.3353 35.129 83.3353 39.928C83.3353 44.751 81.3917 49.0942 78.2484 52.2136ZM80.8158 25.099C77.0246 21.3077 71.7696 18.9562 65.9628 18.9562C60.156 18.9562 54.925 21.3077 51.1098 25.099C47.3185 28.8902 44.967 34.1452 44.967 39.952C44.967 45.7589 47.3185 50.9898 51.1098 54.805C54.901 58.5963 60.156 60.9478 65.9628 60.9478C71.7696 60.9478 77.0006 58.5963 80.8158 54.805C84.6071 51.0138 86.9586 45.7589 86.9586 39.952C86.9586 34.1452 84.6071 28.8902 80.8158 25.099ZM78.2484 52.2136C75.105 55.3569 70.7618 57.3005 65.9628 57.3005C61.1638 57.3005 56.8206 55.3569 53.6773 52.2136C50.5339 49.0702 48.5903 44.7271 48.5903 39.928C48.5903 35.129 50.5339 30.7858 53.6773 27.6425C56.8206 24.4991 61.1638 22.5555 65.9628 22.5555C70.7618 22.5555 75.105 24.4991 78.2484 27.6425C81.3917 30.7858 83.3353 35.129 83.3353 39.928C83.3353 44.751 81.3917 49.0942 78.2484 52.2136ZM118.152 0H13.7732C12.7654 0 11.9496 0.815837 11.9496 1.82364V11.9496H1.82364C0.815837 11.9496 0 12.7654 0 13.7732V66.1308C0 67.1386 0.815837 67.9544 1.82364 67.9544H106.227C107.235 67.9544 108.05 67.1386 108.05 66.1308V56.0048H118.176C119.184 56.0048 120 55.189 120 54.1812V1.82364C119.976 0.815837 119.16 0 118.152 0ZM15.5729 3.64727H35.8488V11.9496H15.5729V3.64727ZM104.403 64.3071H27.5465V43.4313C27.5465 42.4235 26.7307 41.6077 25.7229 41.6077C24.7151 41.6077 23.8992 42.4235 23.8992 43.4313V64.3071H3.64727V15.5729H23.9232V36.4727C23.9232 37.4805 24.7391 38.2963 25.7469 38.2963C26.7547 38.2963 27.5705 37.4805 27.5705 36.4727V15.5729H104.403V64.3071ZM65.9628 60.9478C71.7696 60.9478 77.0006 58.5963 80.8158 54.805C84.6071 51.0138 86.9586 45.7589 86.9586 39.952C86.9586 34.1452 84.6071 28.9142 80.8158 25.099C77.0246 21.3077 71.7696 18.9562 65.9628 18.9562C60.156 18.9562 54.925 21.3077 51.1098 25.099C47.3185 28.8902 44.967 34.1452 44.967 39.952C44.967 45.7589 47.3185 50.9898 51.1098 54.805C54.925 58.5963 60.18 60.9478 65.9628 60.9478ZM53.7013 27.6665C56.8446 24.5231 61.1878 22.5795 65.9868 22.5795C70.7858 22.5795 75.129 24.5231 78.2723 27.6665C81.4157 30.8098 83.3593 35.153 83.3593 39.952C83.3593 44.751 81.4157 49.0942 78.2723 52.2376C75.129 55.3809 70.7858 57.3245 65.9868 57.3245C61.1878 57.3245 56.8446 55.3809 53.7013 52.2376C50.5579 49.0942 48.6143 44.751 48.6143 39.952C48.6143 35.153 50.5579 30.8098 53.7013 27.6665ZM80.8158 25.099C77.0246 21.3077 71.7696 18.9562 65.9628 18.9562C60.156 18.9562 54.925 21.3077 51.1098 25.099C47.3185 28.8902 44.967 34.1452 44.967 39.952C44.967 45.7589 47.3185 50.9898 51.1098 54.805C54.901 58.5963 60.156 60.9478 65.9628 60.9478C71.7696 60.9478 77.0006 58.5963 80.8158 54.805C84.6071 51.0138 86.9586 45.7589 86.9586 39.952C86.9586 34.1452 84.6071 28.8902 80.8158 25.099ZM78.2484 52.2136C75.105 55.3569 70.7618 57.3005 65.9628 57.3005C61.1638 57.3005 56.8206 55.3569 53.6773 52.2136C50.5339 49.0702 48.5903 44.7271 48.5903 39.928C48.5903 35.129 50.5339 30.7858 53.6773 27.6425C56.8206 24.4991 61.1638 22.5555 65.9628 22.5555C70.7618 22.5555 75.105 24.4991 78.2484 27.6425C81.3917 30.7858 83.3353 35.129 83.3353 39.928C83.3353 44.751 81.3917 49.0942 78.2484 52.2136ZM80.8158 25.099C77.0246 21.3077 71.7696 18.9562 65.9628 18.9562C60.156 18.9562 54.925 21.3077 51.1098 25.099C47.3185 28.8902 44.967 34.1452 44.967 39.952C44.967 45.7589 47.3185 50.9898 51.1098 54.805C54.901 58.5963 60.156 60.9478 65.9628 60.9478C71.7696 60.9478 77.0006 58.5963 80.8158 54.805C84.6071 51.0138 86.9586 45.7589 86.9586 39.952C86.9586 34.1452 84.6071 28.8902 80.8158 25.099ZM78.2484 52.2136C75.105 55.3569 70.7618 57.3005 65.9628 57.3005C61.1638 57.3005 56.8206 55.3569 53.6773 52.2136C50.5339 49.0702 48.5903 44.7271 48.5903 39.928C48.5903 35.129 50.5339 30.7858 53.6773 27.6425C56.8206 24.4991 61.1638 22.5555 65.9628 22.5555C70.7618 22.5555 75.105 24.4991 78.2484 27.6425C81.3917 30.7858 83.3353 35.129 83.3353 39.928C83.3353 44.751 81.3917 49.0942 78.2484 52.2136ZM80.8158 25.099C77.0246 21.3077 71.7696 18.9562 65.9628 18.9562C60.156 18.9562 54.925 21.3077 51.1098 25.099C47.3185 28.8902 44.967 34.1452 44.967 39.952C44.967 45.7589 47.3185 50.9898 51.1098 54.805C54.901 58.5963 60.156 60.9478 65.9628 60.9478C71.7696 60.9478 77.0006 58.5963 80.8158 54.805C84.6071 51.0138 86.9586 45.7589 86.9586 39.952C86.9586 34.1452 84.6071 28.8902 80.8158 25.099ZM78.2484 52.2136C75.105 55.3569 70.7618 57.3005 65.9628 57.3005C61.1638 57.3005 56.8206 55.3569 53.6773 52.2136C50.5339 49.0702 48.5903 44.7271 48.5903 39.928C48.5903 35.129 50.5339 30.7858 53.6773 27.6425C56.8206 24.4991 61.1638 22.5555 65.9628 22.5555C70.7618 22.5555 75.105 24.4991 78.2484 27.6425C81.3917 30.7858 83.3353 35.129 83.3353 39.928C83.3353 44.751 81.3917 49.0942 78.2484 52.2136ZM80.8158 25.099C77.0246 21.3077 71.7696 18.9562 65.9628 18.9562C60.156 18.9562 54.925 21.3077 51.1098 25.099C47.3185 28.8902 44.967 34.1452 44.967 39.952C44.967 45.7589 47.3185 50.9898 51.1098 54.805C54.901 58.5963 60.156 60.9478 65.9628 60.9478C71.7696 60.9478 77.0006 58.5963 80.8158 54.805C84.6071 51.0138 86.9586 45.7589 86.9586 39.952C86.9586 34.1452 84.6071 28.8902 80.8158 25.099ZM78.2484 52.2136C75.105 55.3569 70.7618 57.3005 65.9628 57.3005C61.1638 57.3005 56.8206 55.3569 53.6773 52.2136C50.5339 49.0702 48.5903 44.7271 48.5903 39.928C48.5903 35.129 50.5339 30.7858 53.6773 27.6425C56.8206 24.4991 61.1638 22.5555 65.9628 22.5555C70.7618 22.5555 75.105 24.4991 78.2484 27.6425C81.3917 30.7858 83.3353 35.129 83.3353 39.928C83.3353 44.751 81.3917 49.0942 78.2484 52.2136Z" fill="white"/>
<path d="M78.2243 38.8962L72.3455 43.1434L74.601 50.03C74.913 50.9898 74.3851 51.9976 73.4253 52.3095C72.8014 52.5015 72.1535 52.3575 71.6736 51.9736L65.9388 47.7744L60.1079 52.0696C59.2921 52.6695 58.1643 52.4775 57.5884 51.6617C57.2285 51.1818 57.1565 50.5579 57.3245 50.03L59.58 43.1434L53.7012 38.8962C52.8854 38.2963 52.7174 37.1686 53.2933 36.3527C53.6772 35.8248 54.2771 35.5609 54.901 35.6089L62.0275 35.6329L64.2591 28.7462C64.571 27.7864 65.5788 27.2585 66.5386 27.5705C67.1145 27.7624 67.5464 28.1944 67.7144 28.7462L69.946 35.6329L77.1925 35.6089C78.2003 35.6089 78.9922 36.4247 78.9922 37.4085C78.9922 38.0324 78.6802 38.5603 78.2243 38.8962Z" fill="white"/>
</svg>
