<svg width="50" height="50" viewBox="0 0 50 50" fill="none" xmlns="http://www.w3.org/2000/svg">
<path d="M42.6833 7.31667C37.95 2.6 31.6833 0 25 0C18.3167 0 12.05 2.6 7.31667 7.31667C2.58333 12.0333 0 18.3167 0 25C0 31.6833 2.6 37.95 7.31667 42.6833C12.0333 47.4 18.3167 50 25 50C31.6833 50 37.95 47.4 42.6833 42.6833C47.4 37.9667 50 31.6833 50 25C50 18.3167 47.4 12.05 42.6833 7.31667ZM9.93333 40.0667C5.91667 36.05 3.7 30.7 3.7 25C3.7 19.9333 5.46667 15.1333 8.68333 11.3L38.6833 41.3C34.85 44.5333 30.05 46.2833 24.9833 46.2833C19.3167 46.3 13.9667 44.0833 9.93333 40.0667ZM41.3167 38.7L11.3167 8.7C15.15 5.46667 19.95 3.71667 25.0167 3.71667C30.7 3.71667 36.05 5.93333 40.0833 9.95C44.1167 13.9667 46.3167 19.3167 46.3167 25.0167C46.3 30.0667 44.5333 34.8667 41.3167 38.7Z" fill="black"/>
</svg>
