<svg width="41" height="50" viewBox="0 0 41 50" fill="none" xmlns="http://www.w3.org/2000/svg">
<path d="M5.87679 45.3603C7.14245 45.5637 8.02389 46.7615 7.82048 48.0272C7.61707 49.2928 6.41922 50.1743 5.15356 49.9709C3.8879 49.7675 3.00646 48.5696 3.20987 47.3039C3.39068 46.0383 4.58854 45.1569 5.87679 45.3603Z" fill="black"/>
<path d="M6.96146 29.788L6.44164 33.1104C6.28343 34.0822 5.94441 34.2404 4.97257 34.0822L3.75212 33.8788C2.78027 33.7206 1.87623 34.3986 1.71803 35.3479L0.0229511 45.9025C-0.135256 46.8744 0.542774 47.7784 1.49202 47.9366L2.23785 48.0496C2.30565 48.0722 2.39606 48.0722 2.46386 48.0948C2.41866 47.801 2.41866 47.4846 2.46386 47.1682C2.73507 45.4957 4.29454 44.3657 5.96701 44.6369C6.50944 44.7273 6.98406 44.9533 7.39088 45.2697L8.79214 36.5005C8.95035 35.5287 9.19896 33.9466 9.35717 32.9974L9.78658 30.2627C9.94479 29.2908 9.33456 29.0196 8.54353 28.884C7.77509 28.7484 7.11967 28.8388 6.96146 29.788Z" fill="black"/>
<path d="M24.0927 10.8937C27.0986 10.8937 29.5395 8.45278 29.5395 5.44684C29.5395 2.44091 27.0986 0 24.0927 0C21.0868 0.022601 18.6685 2.46351 18.6685 5.46944C18.6685 8.47538 21.0868 10.8937 24.0927 10.8937Z" fill="black"/>
<path d="M37.585 21.7875H32.5676L25.7421 13.6285L25.7195 13.6059C25.0188 12.6567 23.934 12.0012 22.6683 11.8656C22.5101 11.843 22.3745 11.843 22.2163 11.843C21.9225 11.7978 21.6287 11.7978 21.3123 11.8656L11.2548 14.0805C10.4186 14.2613 9.74057 14.8716 9.49196 15.6852L6.37302 25.381C5.9662 26.6467 6.66683 28.0027 7.93249 28.4096C8.1811 28.5 8.42971 28.5226 8.67832 28.5226C9.69537 28.5226 10.6446 27.8671 10.961 26.8501L13.6731 18.4651L17.8091 17.5611L16.2723 33.7208L13.4245 47.1006C13.1533 48.4114 13.967 49.6771 15.2778 49.9483C15.436 49.9935 15.6168 49.9935 15.775 49.9935C16.8825 49.9935 17.8769 49.2251 18.1255 48.095L20.4986 36.9979L24.838 37.8568L27.2563 48.1402C27.5502 49.4285 28.861 50.2421 30.1493 49.9257C31.4375 49.6319 32.2512 48.321 31.9348 47.0328L29.1548 35.2577C28.9514 34.3762 28.2282 33.6304 27.2789 33.4496L21.7191 32.3421L25.3805 20.68L29.6068 25.7426C30.0589 26.2851 30.7369 26.6015 31.4601 26.6015H37.6076C38.9411 26.6015 40.0033 25.5166 40.0033 24.2058C39.9807 22.8723 38.9185 21.7875 37.585 21.7875Z" fill="black"/>
</svg>
