<svg width="50" height="31" viewBox="0 0 50 31" fill="none" xmlns="http://www.w3.org/2000/svg">
<path d="M49.2601 25.3476H47.336C46.9735 14.8349 39.1657 5.88378 28.7924 4.09912V3.73662C28.7645 1.67311 27.0914 0 25.0279 0C22.9644 0 21.2634 1.67311 21.2634 3.7645V4.12701C10.8901 5.88378 3.08223 14.8349 2.71972 25.3476H0.767758C0.433136 25.3476 0.154284 25.5707 0.0427428 25.8775C-0.068798 26.1842 0.0427428 26.5467 0.321595 26.7419L5.03419 30.1718C5.17362 30.2554 5.31305 30.3112 5.48036 30.3112H44.5196C44.687 30.3112 44.8264 30.2554 44.9658 30.1718L49.6784 26.7419C49.9573 26.5467 50.0688 26.2121 49.9573 25.8775C49.8736 25.5707 49.5948 25.3476 49.2601 25.3476ZM22.1278 5.52127C22.5182 5.4655 22.7971 5.15876 22.7971 4.76837V3.7645C22.7971 2.53755 23.8009 1.53369 25.0279 1.53369C26.2548 1.53369 27.2587 2.53755 27.2587 3.7645V4.76837C27.2587 5.15876 27.5376 5.4655 27.9279 5.52127C37.883 6.91553 45.4399 15.3647 45.8302 25.3476H4.22552C4.58803 15.3647 12.1728 6.91553 22.1278 5.52127ZM44.2966 28.7775H5.73132L3.11012 26.8813H3.44474H46.5831H46.9178L44.2966 28.7775Z" fill="black"/>
</svg>
