<svg width="50" height="50" viewBox="0 0 50 50" fill="none" xmlns="http://www.w3.org/2000/svg">
<path d="M49.0936 7.39009C50.0879 5.24385 50.585 3.00725 48.8676 1.13211C46.9693 -0.584876 44.7547 -0.0878525 42.6079 0.906195C39.3312 2.44245 36.8454 4.88238 34.3145 7.29973C32.2128 9.26523 30.292 10.5982 30.292 10.5982C30.292 10.5982 15.4903 7.11899 6.27031 6.37345C3.44556 6.14753 2.11228 7.6612 1.36654 9.26523C0.598211 10.937 3.10659 12.2022 4.25909 12.6992C8.41713 14.4614 11.5131 15.9073 15.1965 17.805C18.6314 19.5898 20.5297 21.6456 20.5297 21.6456C20.5297 21.6456 19.106 24.0178 16.6654 27.1129C13.0497 31.6991 11.3549 33.9131 3.26478 33.1224C2.18007 33.0094 0.688603 33.3483 0.168849 34.5682C-0.554288 36.2175 1.23096 36.353 2.02189 36.6919C4.64326 37.8215 6.90306 39.3126 8.80129 41.1877C10.6769 43.0628 12.1458 45.322 13.2983 47.9653C13.6373 48.756 13.7729 50.5408 15.4225 49.8404C16.6428 49.2982 16.9818 47.8071 16.8688 46.7453C16.0779 38.68 18.2925 36.9856 22.8799 33.3483C25.9758 30.9083 28.3486 29.4851 28.3486 29.4851C28.3486 29.4851 30.405 31.3828 32.1902 34.8168C34.1111 38.4993 35.5348 41.5718 37.2974 45.7513C37.7946 46.9035 39.0374 49.4112 40.7323 48.6431C42.3368 47.8975 43.8508 46.5646 43.6248 43.7406C42.8565 34.5231 39.3764 19.7479 39.3764 19.7479C39.3764 19.7479 40.7097 17.8276 42.6757 15.7491C45.1163 13.151 47.5569 10.6885 49.0936 7.39009Z" fill="black"/>
</svg>
