<svg width="170" height="170" viewBox="0 0 170 170" fill="none" xmlns="http://www.w3.org/2000/svg">
<g filter="url(#filter0_d_11_2113)">
<circle cx="85" cy="75" r="75" fill="white"/>
<circle cx="85" cy="75" r="59.5" fill="white" stroke="#98D7FA"/>
<circle cx="85" cy="75" r="50" fill="#F4FEFF"/>
<rect x="110" y="80" width="5" height="25" rx="2.5" fill="#076AD0"/>
<rect x="115" y="100" width="5" height="25" rx="2.5" transform="rotate(90 115 100)" fill="#076AD0"/>
<rect x="90" y="50" width="5" height="25" rx="2.5" transform="rotate(-90 90 50)" fill="#076AD0"/>
<rect x="110" y="45" width="5" height="25" rx="2.5" fill="#076AD0"/>
<rect x="60" y="70" width="5" height="25" rx="2.5" transform="rotate(180 60 70)" fill="#076AD0"/>
<rect x="55" y="50" width="5" height="25" rx="2.5" transform="rotate(-90 55 50)" fill="#076AD0"/>
<rect x="80" y="100" width="5" height="25" rx="2.5" transform="rotate(90 80 100)" fill="#076AD0"/>
<rect x="60" y="105" width="5" height="25" rx="2.5" transform="rotate(180 60 105)" fill="#076AD0"/>
<rect x="60" y="72.5" width="50" height="5" rx="2.5" fill="#076AD0"/>
</g>
<defs>
<filter id="filter0_d_11_2113" x="0" y="0" width="170" height="170" filterUnits="userSpaceOnUse" color-interpolation-filters="sRGB">
<feFlood flood-opacity="0" result="BackgroundImageFix"/>
<feColorMatrix in="SourceAlpha" type="matrix" values="0 0 0 0 0 0 0 0 0 0 0 0 0 0 0 0 0 0 127 0" result="hardAlpha"/>
<feOffset dy="10"/>
<feGaussianBlur stdDeviation="5"/>
<feComposite in2="hardAlpha" operator="out"/>
<feColorMatrix type="matrix" values="0 0 0 0 0 0 0 0 0 0 0 0 0 0 0 0 0 0 0.15 0"/>
<feBlend mode="normal" in2="BackgroundImageFix" result="effect1_dropShadow_11_2113"/>
<feBlend mode="normal" in="SourceGraphic" in2="effect1_dropShadow_11_2113" result="shape"/>
</filter>
</defs>
</svg>
