<svg width="50" height="50" viewBox="0 0 50 50" fill="none" xmlns="http://www.w3.org/2000/svg">
<path d="M34.0278 14.6199L17.6535 22.807C17.8363 23.5015 17.9276 24.2507 17.9276 25C17.9276 25.7675 17.818 26.4985 17.6535 27.193L34.0278 35.3801C35.6725 33.3516 38.1762 32.0541 40.9905 32.0541C45.943 32.0541 49.9634 36.0746 49.9634 41.027C49.9634 45.9795 45.943 50 40.9905 50C36.038 50 32.0175 45.9795 32.0175 41.027C32.0175 40.2595 32.1272 39.5285 32.2917 38.8341L15.9174 30.6469C14.2727 32.6754 11.769 33.973 8.95468 33.973C4.02047 33.9547 0 29.9525 0 25C0 20.0475 4.02047 16.027 8.97295 16.027C11.7873 16.027 14.3092 17.3246 15.9357 19.3531L32.3099 11.1659C32.1272 10.4715 32.0358 9.72222 32.0358 8.97295C32.0358 4.02047 36.0563 0 41.0088 0C45.9613 0 49.9817 4.02047 49.9817 8.97295C49.9817 13.9254 45.9613 17.9459 41.0088 17.9459C38.1762 17.9459 35.6542 16.6484 34.0278 14.6199Z" fill="#076AD0"/>
</svg>
