<svg width="42" height="50" viewBox="0 0 42 50" fill="none" xmlns="http://www.w3.org/2000/svg">
<path d="M30.202 19.6683C30.4614 19.9092 30.4799 20.3168 30.2205 20.5948L17.38 34.1949C17.1206 34.4543 16.713 34.4729 16.4536 34.2135L11.3396 29.0995C11.0802 28.8401 11.0802 28.4325 11.3396 28.1731L13.174 26.3387C13.4334 26.0793 13.841 26.0793 14.1004 26.3387L16.3795 28.6177C16.6389 28.8772 17.065 28.8772 17.3059 28.5992L27.4041 17.9081C27.645 17.6487 28.0526 17.6302 28.3306 17.8896L30.202 19.6683ZM40.541 9.57013C41.134 9.69983 41.5601 10.2372 41.5601 10.8301C41.5601 34.6026 41.2637 44.182 21.1414 49.9444C20.9005 50.0185 20.6411 50.0185 20.4188 49.9444C0.296461 44.182 0 34.6026 0 10.8486C0 10.2372 0.426163 9.71836 1.01908 9.58866C11.9696 6.99463 17.7877 2.34389 19.8814 0.361312C20.3817 -0.120437 21.1784 -0.120437 21.6787 0.361312C23.7725 2.34389 29.5905 6.99463 40.541 9.57013ZM37.002 14.332C37.002 13.7576 36.6129 13.2388 36.0571 13.0906C31.1655 11.6454 26.8112 9.66278 23.0498 7.19844C22.494 6.82787 21.9937 6.47582 21.512 6.1423C21.0487 5.80878 20.4558 5.80878 19.9926 6.1423C19.5294 6.49435 19.0106 6.8464 18.4547 7.19844C14.7304 9.66278 10.3761 11.6454 5.48453 13.0906C4.92866 13.2574 4.53956 13.7576 4.53956 14.332C4.61367 34.3432 5.5957 40.6615 20.3817 45.201C20.6226 45.2752 20.9005 45.2752 21.1599 45.201C35.9459 40.6615 36.9465 34.3617 37.002 14.332Z" fill="black"/>
</svg>
