<svg width="99" height="100" viewBox="0 0 99 100" fill="none" xmlns="http://www.w3.org/2000/svg">
<path d="M63.9 90.5435C63.9 92.7826 62.0826 94.6 59.8435 94.6H9.45652C7.21739 94.6 5.4 92.7826 5.4 90.5435V19.4652C5.4 17.2261 7.21739 15.4087 9.45652 15.4087H17.3565C17.3348 15.0608 17.3522 14.7087 17.413 14.3565L18.1565 10.0087H9.45652C4.23913 10.0087 0 14.2478 0 19.4652V90.5435C0 95.7608 4.23913 100 9.45652 100H59.8435C65.0609 100 69.3 95.7608 69.3 90.5435V88.5391C67.4044 87.5608 65.6043 86.5217 63.9 85.4087V90.5435Z" fill="#076AD0"/>
<path d="M51.9392 15.4043H59.8392C62.0783 15.4043 63.8957 17.2217 63.8957 19.4608V27.2391C66.2522 25.9826 68.0566 24.7739 68.9826 24.1217C69.0826 24.0478 69.187 23.9826 69.2957 23.9174V19.4652C69.2957 14.2478 65.0566 10.0087 59.8392 10.0087H51.1392L51.8826 14.3565C51.9479 14.7043 51.9652 15.0565 51.9392 15.4043Z" fill="#076AD0"/>
<path d="M21.852 16.4957H47.4477C48.3042 16.4957 48.952 15.7261 48.8086 14.8826L47.4086 6.73913C47.2955 6.07826 46.7216 5.5913 46.0477 5.5913H40.5912C40.5955 5.68696 40.5999 5.77826 40.5999 5.87391C40.5955 5.77826 40.5955 5.68261 40.5912 5.5913C40.4042 2.47391 37.8172 0 34.6477 0C31.4825 0 28.8955 2.47391 28.7042 5.5913H23.2477C22.5738 5.5913 21.9999 6.07391 21.8868 6.73913L20.4912 14.8826C20.3477 15.7261 20.9955 16.4957 21.852 16.4957ZM31.5303 5.5913C31.7086 4.02609 33.039 2.81304 34.6477 2.81304C36.2607 2.81304 37.5912 4.03043 37.7694 5.5913C37.7825 5.71304 37.7955 5.83043 37.7955 5.95652C37.7955 7.6913 36.3868 9.09565 34.652 9.09565C32.9172 9.09565 31.5129 7.68696 31.5129 5.95652C31.5086 5.83043 31.5129 5.71304 31.5303 5.5913Z" fill="#076AD0"/>
<path d="M13.526 30.4696C13.0173 29.8739 12.1217 29.8043 11.526 30.3174C10.9304 30.8261 10.8608 31.7217 11.3695 32.3174L14.626 36.113C14.8869 36.4174 15.2608 36.5956 15.6565 36.6087C15.6695 36.6087 15.6869 36.6087 15.6999 36.6087C16.0825 36.6087 16.4478 36.4565 16.7173 36.1782L21.8043 30.9565C22.3521 30.3956 22.3391 29.5 21.7782 28.9522C21.2173 28.4043 20.3217 28.4174 19.7738 28.9782L15.7738 33.0869L13.526 30.4696Z" fill="#076AD0"/>
<path d="M50.8958 30.9565H29.2741C28.3784 30.9565 27.6523 31.6826 27.6523 32.5783C27.6523 33.4739 28.3784 34.2 29.2741 34.2H43.9393C43.9393 34.2 43.9436 34.1957 43.9436 34.1913C44.335 33.6392 44.8089 33.1565 45.348 32.7522C45.3523 32.7522 45.3567 32.7478 45.361 32.7435C45.8741 32.3609 46.448 32.0609 47.061 31.8565C48.0306 31.4739 49.2871 31.1392 50.8958 30.9565Z" fill="#076AD0"/>
<path d="M21.7826 44.2565C21.2217 43.7087 20.3261 43.7217 19.7782 44.2826L15.7739 48.3913L13.5304 45.7695C13.0217 45.1739 12.1261 45.1043 11.5304 45.6174C10.9348 46.126 10.8652 47.0217 11.3739 47.6174L14.6304 51.413C14.8913 51.7174 15.2652 51.8956 15.6609 51.9087C15.6739 51.9087 15.6913 51.9087 15.7043 51.9087C16.0869 51.9087 16.4522 51.7565 16.7217 51.4782L21.8087 46.2565C22.3565 45.7 22.3435 44.8043 21.7826 44.2565Z" fill="#076AD0"/>
<path d="M29.2741 49.5044H42.3741C42.2828 48.3827 42.2263 47.3 42.2089 46.2653H29.2741C28.3784 46.2653 27.6523 46.9913 27.6523 47.887C27.6523 48.7827 28.3784 49.5044 29.2741 49.5044Z" fill="#076AD0"/>
<path d="M21.7826 59.5652C21.2217 59.0174 20.3261 59.0304 19.7782 59.5913L15.7739 63.7L13.5304 61.0782C13.0217 60.4826 12.1261 60.413 11.5304 60.9261C10.9348 61.4348 10.8652 62.3304 11.3739 62.9261L14.6304 66.7261C14.8913 67.0304 15.2652 67.2087 15.6609 67.2217C15.6739 67.2217 15.6913 67.2217 15.7043 67.2217C16.0869 67.2217 16.4522 67.0695 16.7217 66.7913L21.8087 61.5695C22.3565 61.0087 22.3435 60.1087 21.7826 59.5652Z" fill="#076AD0"/>
<path d="M29.2741 61.5696C28.3784 61.5696 27.6523 62.2957 27.6523 63.1913C27.6523 64.087 28.3784 64.8131 29.2741 64.8131H46.1567C45.7002 63.7565 45.2828 62.6739 44.9002 61.5696H29.2741Z" fill="#076AD0"/>
<path d="M19.7782 74.8956L15.7739 79.0043L13.5304 76.3826C13.0217 75.7869 12.1261 75.7174 11.5304 76.2304C10.9348 76.7391 10.8652 77.6348 11.3739 78.2304L14.6304 82.0261C14.8913 82.3304 15.2652 82.5087 15.6609 82.5217C15.6739 82.5217 15.6913 82.5217 15.7043 82.5217C16.0869 82.5217 16.4522 82.3695 16.7217 82.0913L21.8087 76.8695C22.3565 76.3087 22.3435 75.413 21.7826 74.8652C21.2217 74.3261 20.3261 74.3348 19.7782 74.8956Z" fill="#076AD0"/>
<path d="M27.6523 78.4957C27.6523 79.3913 28.3784 80.1174 29.2741 80.1174H56.6436C56.7741 80.1174 56.9002 80.1 57.0219 80.0739C55.9132 79.0479 54.8654 77.9826 53.8741 76.8783H29.2741C28.3784 76.8783 27.6523 77.6044 27.6523 78.4957Z" fill="#076AD0"/>
<path d="M98.0521 37.474C97.8912 36.5436 97.0825 35.874 96.139 35.8783C86.3043 35.9088 76.9043 29.9175 73.7434 27.6783C73.0695 27.2001 72.1695 27.2001 71.4999 27.674C68.3347 29.9131 58.9303 35.9088 49.0956 35.8783C48.1477 35.874 47.3434 36.5436 47.1782 37.474C46.0043 44.3088 43.5434 70.6522 71.7303 84.8957C72.2782 85.1696 72.9303 85.1696 73.4738 84.8957C101.674 70.6653 99.226 44.3131 98.0521 37.474ZM85.9651 51.187L71.7564 65.3957C71.1825 65.9696 70.4303 66.2566 69.6782 66.2566C68.926 66.2566 68.1738 65.9696 67.5999 65.3957L59.2695 57.0653C58.1216 55.9175 58.1216 54.0566 59.2695 52.9088C60.4173 51.7609 62.2825 51.7609 63.4303 52.9088L69.6782 59.1609L81.8086 47.0305C82.9564 45.8827 84.8173 45.8827 85.9651 47.0305C87.1129 48.1783 87.1129 50.0392 85.9651 51.187Z" fill="#076AD0"/>
</svg>
