<svg width="80" height="54" viewBox="0 0 80 54" fill="none" xmlns="http://www.w3.org/2000/svg">
<path d="M63.5858 53.4142C64.3668 54.1953 65.6332 54.1953 66.4142 53.4142L79.1421 40.6863C79.9232 39.9052 79.9232 38.6389 79.1421 37.8579C78.3611 37.0768 77.0948 37.0768 76.3137 37.8579L65 49.1716L53.6863 37.8579C52.9052 37.0768 51.6389 37.0768 50.8579 37.8579C50.0768 38.6389 50.0768 39.9052 50.8579 40.6863L63.5858 53.4142ZM67 52L67 2L63 2L63 52L67 52Z" fill="#1F1F1F"/>
<path d="M16.4142 0.585787C15.6332 -0.195262 14.3668 -0.195262 13.5858 0.585786L0.857864 13.3137C0.0768151 14.0948 0.076815 15.3611 0.857864 16.1421C1.63891 16.9232 2.90524 16.9232 3.68629 16.1421L15 4.82843L26.3137 16.1421C27.0948 16.9232 28.3611 16.9232 29.1421 16.1421C29.9232 15.3611 29.9232 14.0948 29.1421 13.3137L16.4142 0.585787ZM13 2L13 52L17 52L17 2L13 2Z" fill="#1F1F1F"/>
</svg>
