<svg width="100" height="100" viewBox="0 0 100 100" fill="none" xmlns="http://www.w3.org/2000/svg">
<path d="M61.0706 54.6937C67.1862 48.5781 67.1862 38.6629 61.0706 32.5473C54.9551 26.4317 45.0398 26.4317 38.9243 32.5473C32.8087 38.6628 32.8087 48.5781 38.9243 54.6937C45.0398 60.8092 54.9551 60.8092 61.0706 54.6937Z" fill="#076AD0"/>
<path d="M50 100C22.42 100 0 77.56 0 50C0 22.44 22.42 0 50 0C77.58 0 100 22.42 100 50C100 77.58 77.56 100 50 100ZM50 5.28C25.34 5.28 5.28 25.34 5.28 50C5.28 74.66 25.34 94.72 50 94.72C74.66 94.72 94.72 74.66 94.72 50C94.72 25.34 74.66 5.28 50 5.28Z" fill="#076AD0"/>
<path d="M50 100C39 100 28.54 96.48 19.8 89.84C7.22 80.3 0 65.78 0 50C0 22.44 22.42 0 50 0C77.58 0 100 22.42 100 50C100 64.4 93.78 78.12 82.92 87.64C73.8 95.6 62.12 100 50 100ZM50 5.28C25.34 5.28 5.28 25.34 5.28 50C5.28 64.12 11.74 77.1 23 85.64C30.82 91.58 40.16 94.72 50 94.72C60.84 94.72 71.3 90.8 79.44 83.66C89.14 75.16 94.72 62.88 94.72 50C94.72 25.34 74.66 5.28 50 5.28Z" fill="#076AD0"/>
<path d="M82.2198 84.72C81.8798 85.04 81.5398 85.34 81.1798 85.66C72.8598 92.94 61.9398 97.36 49.9998 97.36C39.2598 97.36 29.3398 93.78 21.3998 87.74C20.1398 86.78 18.9398 85.78 17.7998 84.7C18.7398 79.96 21.0798 75.7 24.3598 72.4C28.6998 68.06 34.6998 65.38 41.3198 65.38H58.6798C70.3398 65.38 80.0398 73.7 82.2198 84.72Z" fill="#076AD0"/>
</svg>
