<svg width="50" height="42" viewBox="0 0 50 42" fill="none" xmlns="http://www.w3.org/2000/svg">
<path d="M28.3108 39.8731C26.4615 41.7225 23.5125 41.7225 21.7132 39.8731C19.8638 38.0238 19.8638 35.0748 21.7132 33.2755C21.7132 33.2755 21.7132 33.2755 21.7632 33.2255C23.5625 31.4261 26.5115 31.4261 28.3108 33.2255C28.3108 33.2255 28.3108 33.2255 28.3608 33.2755C30.1602 35.0748 30.1602 38.0238 28.3108 39.8731Z" fill="black"/>
<path d="M34.1588 27.8777C33.2091 28.8274 31.8596 28.9273 30.8099 28.2276C27.3112 25.9284 22.7128 25.9284 19.2141 28.2276C18.1644 28.9273 16.7649 28.7774 15.9152 27.9277L15.8652 27.8777C14.7156 26.7281 14.8656 24.7788 16.2651 23.8291C21.5632 20.3304 28.4608 20.3304 33.7589 23.8291C35.1584 24.7288 35.3084 26.6781 34.1588 27.8777Z" fill="black"/>
<path d="M41.7065 20.2802C40.7069 21.2799 39.2074 21.3298 38.2077 20.5301C30.5105 14.3823 19.5144 14.3823 11.8171 20.5301C10.7675 21.3798 9.26798 21.2799 8.31832 20.3302L8.26834 20.2802C7.16872 19.1806 7.26869 17.3812 8.46826 16.3816C18.0649 8.68432 31.86 8.68432 41.4566 16.3816C42.7061 17.3812 42.8061 19.1806 41.7065 20.2802Z" fill="black"/>
<path d="M49.2539 12.783C48.2543 13.7826 46.7048 13.8326 45.6552 12.9829C33.8094 2.78651 16.2156 2.78651 4.3698 12.9329C3.32018 13.8326 1.77072 13.7326 0.82106 12.783L0.771078 12.733C-0.328533 11.6334 -0.228568 9.884 0.921025 8.88435C14.7661 -2.96145 35.2589 -2.96145 49.054 8.88435C50.2536 9.93398 50.3035 11.6834 49.2539 12.783Z" fill="black"/>
</svg>
